<svg xmlns="http://www.w3.org/2000/svg"><symbol id="liquid-arkycite-ui" viewBox="0 0 32 32"><path d="M 16,32 H 0 V 16 0 h 16 16 v 16 16 z" style="fill:#ffffff"></path><path d="M 15,31 H 10.846154 L 7.9230769,28.076923 5,25.153846 V 21.445 17.736154 L 8.5682664,14.370846 12.136533,11.005537 11.449986,8.7527687 10.763439,6.5 9.2053482,4.7263713 7.6472575,2.9527425 8.7679938,1.8320062 9.8887302,0.71126984 12.964613,1.9853422 l 3.075883,1.2740723 2.52755,3.0038229 2.52755,3.0038228 1.952202,3.8266318 L 25,16.920324 v 4.116761 4.116761 L 22.076923,28.076923 19.153846,31 Z" style="fill:#d1dc75"></path><path d="M 15,31 H 10.846154 L 7.9230769,28.076923 5,25.153846 V 21.445 17.736154 L 8.5682664,14.370846 12.136533,11.005537 11.449986,8.7527687 10.763439,6.5 9.2053482,4.7263713 7.6472575,2.9527425 8.7679938,1.8320062 9.8887302,0.71126984 12.964613,1.9853422 l 3.075883,1.2740723 2.52755,3.0038229 2.52755,3.0038228 1.952202,3.8266318 L 25,16.920324 v 4.116761 4.116761 L 22.076923,28.076923 19.153846,31 Z M 20.278409,19.746745 21.5,19.345762 21.800558,16.837285 22.101116,14.328808 20.6056,13.08764 19.110084,11.846472 16.88337,12.173236 14.656656,12.5 l -0.402192,1.221591 -0.402191,1.221591 2.602272,2.602273 2.602273,2.602272 z" style="fill:#83a84a"></path><path d="M 15,31 H 10.846154 L 7.9230769,28.076923 5,25.153846 V 21.5 17.846154 l 3.0448718,-3.044872 3.0448722,-3.044872 0.509015,0.509015 0.509015,0.509016 L 10.057625,16.13722 8.0074761,19.5 8.0037381,20.795455 8,22.090909 10.454545,24.545455 12.909091,27 15.704545,26.996262 18.5,26.992524 21.75,25.01096 25,23.029397 v 1.062225 1.062224 L 22.076923,28.076923 19.153846,31 Z" style="fill:#3b7040"></path></symbol><symbol id="liquid-cryofluid-ui" viewBox="0 0 32 32"></symbol><symbol id="liquid-cyanogen-ui" viewBox="0 0 32 32"><path d="M 16,32 H 0 V 16 0 h 16 16 v 16 16 z" style="fill:#ffffff"></path><path d="M 15.79966,29.996262 13.5,29.992524 10.304334,28.044003 7.1086681,26.095482 5.5086277,23.653512 3.9085873,21.211541 3.3562988,17.808187 2.8040104,14.404832 4.3418296,10.724312 5.8796488,7.0437931 9.1898244,5.0256346 12.5,3.0074761 15.79966,3.0037381 19.09932,3 22.032733,4.5169269 24.966146,6.0338538 26.483073,8.967267 28,11.90068 v 1.967873 1.967872 L 27.378819,17.455198 26.757637,19.07397 23.928479,20.536985 21.09932,22 H 18.704647 16.309975 L 14.654988,20.171259 13,18.342519 v -1.737001 -1.737001 l 1.082165,-2.022044 1.082166,-2.022045 2.592466,0.650668 2.592467,0.650668 L 19.052187,10.562882 17.755111,9 H 15.877555 14 l -2,2 -2,2 v 3.076923 3.076923 l 3.001149,3.00115 3.00115,3.001149 3.654391,-0.328073 3.654392,-0.328072 0.408238,1.191338 0.408239,1.191338 -3.01412,1.558662 L 18.09932,30 15.79966,29.9963 Z" style="fill:#8cedba"></path><path d="M 15.79966,29.996262 13.5,29.992524 10.304334,28.044003 7.1086681,26.095482 5.5688793,23.745467 4.0290905,21.395452 3.4074491,18.287246 2.7858077,15.179039 3.9960154,11.512074 5.206223,7.8451084 7.6031115,10.096868 10,12.348628 v 3.402609 3.402609 l 3.001149,3.00115 3.00115,3.001149 3.654391,-0.328073 3.654392,-0.328072 0.408238,1.191338 0.408239,1.191338 -3.01412,1.558662 L 18.09932,30 15.79966,29.9963 Z" style="fill:#5dc0be"></path></symbol><symbol id="liquid-gallium-ui" viewBox="0 0 32 32"><path d="M 16,32 H 0 V 16 0 h 16 16 v 16 16 z" style="fill:#ffffff"></path><path d="M 15,31 H 10.846154 L 7.9230769,28.076923 5,25.153846 V 21.445 17.736154 L 8.5682664,14.370846 12.136533,11.005537 11.449986,8.7527687 10.763439,6.5 9.2053482,4.7263713 7.6472575,2.9527425 8.7679938,1.8320062 9.8887302,0.71126984 12.964613,1.9853422 l 3.075883,1.2740723 2.52755,3.0038229 2.52755,3.0038228 1.952202,3.8266318 L 25,16.920324 v 4.116761 4.116761 L 22.076923,28.076923 19.153846,31 Z" style="fill:#ececec"></path><path d="M 15,31 H 10.846154 L 7.9230769,28.076923 5,25.153846 V 21.445 17.736154 L 8.5682664,14.370846 12.136533,11.005537 11.449986,8.7527687 10.763439,6.5 9.2053482,4.7263713 7.6472575,2.9527425 8.7679938,1.8320062 9.8887302,0.71126984 12.964613,1.9853422 l 3.075883,1.2740723 2.52755,3.0038229 2.52755,3.0038228 1.952202,3.8266318 L 25,16.920324 v 4.116761 4.116761 L 22.076923,28.076923 19.153846,31 Z M 20.278409,19.746745 21.5,19.345762 21.800558,16.837285 22.101116,14.328808 20.6056,13.08764 19.110084,11.846472 16.88337,12.173236 14.656656,12.5 l -0.402192,1.221591 -0.402191,1.221591 2.602272,2.602273 2.602273,2.602272 z" style="fill:#999cbe"></path><path d="M 15,31 H 10.846154 L 7.9230769,28.076923 5,25.153846 V 21.5 17.846154 l 3.0448718,-3.044872 3.0448722,-3.044872 0.509015,0.509015 0.509015,0.509016 L 10.057625,16.13722 8.0074761,19.5 8.0037381,20.795455 8,22.090909 10.454545,24.545455 12.909091,27 15.704545,26.996262 18.5,26.992524 21.75,25.01096 25,23.029397 v 1.062225 1.062224 L 22.076923,28.076923 19.153846,31 Z" style="fill:#645f7b"></path></symbol><symbol id="liquid-hydrogen-ui" viewBox="0 0 32 32"><path d="M 16,32 H 0 V 16 0 h 16 16 v 16 16 z" style="fill:#ffffff"></path><path d="M 15.79966,29.996262 13.5,29.992524 10.304334,28.044003 7.1086681,26.095482 5.5086277,23.653512 3.9085873,21.211541 3.3562988,17.808187 2.8040104,14.404832 4.3418296,10.724312 5.8796488,7.0437931 9.1898244,5.0256346 12.5,3.0074761 15.79966,3.0037381 19.09932,3 22.032733,4.5169269 24.966146,6.0338538 26.483073,8.967267 28,11.90068 v 1.967873 1.967872 L 27.378819,17.455198 26.757637,19.07397 23.928479,20.536985 21.09932,22 H 18.704647 16.309975 L 14.654988,20.171259 13,18.342519 v -1.737001 -1.737001 l 1.082165,-2.022044 1.082166,-2.022045 2.592466,0.650668 2.592467,0.650668 L 19.052187,10.562882 17.755111,9 H 15.877555 14 l -2,2 -2,2 v 3.076923 3.076923 l 3.001149,3.00115 3.00115,3.001149 3.654391,-0.328073 3.654392,-0.328072 0.408238,1.191338 0.408239,1.191338 -3.01412,1.558662 L 18.09932,30 15.79966,29.9963 Z" style="fill:#d0e3fe"></path><path d="M 15.79966,29.996262 13.5,29.992524 10.304334,28.044003 7.1086681,26.095482 5.5688793,23.745467 4.0290905,21.395452 3.4074491,18.287246 2.7858077,15.179039 3.9960154,11.512074 5.206223,7.8451084 7.6031115,10.096868 10,12.348628 v 3.402609 3.402609 l 3.001149,3.00115 3.00115,3.001149 3.654391,-0.328073 3.654392,-0.328072 0.408238,1.191338 0.408239,1.191338 -3.01412,1.558662 L 18.09932,30 15.79966,29.9963 Z" style="fill:#96a4f6"></path></symbol><symbol id="liquid-neoplasm-ui" viewBox="0 0 32 32"><path d="M 16,32 H 0 V 16 0 h 16 16 v 16 16 z" style="fill:#ffffff"></path><path d="M 7.7046475,31 H 6.3099751 L 4.6549876,29.171259 3,27.342519 V 26.136076 24.929633 L 4.4869232,22.660302 5.9738465,20.39097 4.7690426,17.19908 3.5642386,14.00719 5.2451795,12.326249 6.9261204,10.645308 9.4630602,11.801215 12,12.957122 V 11.446443 9.9357627 L 10.506639,6.3616474 9.0132785,2.787532 9.5656562,1.893766 10.118034,1 h 1.824621 1.82462 l 3.573051,3.9549397 3.57305,3.9549397 2.043312,4.0052226 L 25,16.920324 v 4.317332 4.317332 L 23.443296,27.777494 21.886592,30 H 20.429727 18.972862 L 17.174641,28.876993 15.376421,27.753985 12.23787,29.376993 9.0993199,31 Z" style="fill:#f88e49"></path><path d="M 7.7046475,31 H 6.3099751 L 4.6549876,29.171259 3,27.342519 V 26.136076 24.929633 L 4.4869232,22.660302 5.9738465,20.39097 4.7690426,17.19908 3.5642386,14.00719 5.2451795,12.326249 6.9261204,10.645308 9.4630602,11.801215 12,12.957122 V 11.446443 9.9357627 L 10.506639,6.3616474 9.0132785,2.787532 9.5656562,1.893766 10.118034,1 h 1.824621 1.82462 l 3.573051,3.9549397 3.57305,3.9549397 2.043312,4.0052226 L 25,16.920324 v 4.317332 4.317332 L 23.443296,27.777494 21.886592,30 H 20.429727 18.972862 L 17.174641,28.876993 15.376421,27.753985 12.23787,29.376993 9.0993199,31 Z M 18.988339,18 h 0.766772 L 21,16.5 22.244889,15 21,13.5 19.755111,12 h -2.318539 -2.318538 l -0.718126,1.161952 -0.718126,1.161952 2.269893,1.838048 L 18.221568,18 Z" style="fill:#df5337"></path><path d="M 7.6079345,31 H 6.3099751 L 4.6549876,29.171259 3,27.342519 V 26.136076 24.929633 L 4.4869232,22.660302 5.9738465,20.39097 4.7979454,17.275652 3.6220444,14.160335 4.9334669,12.580167 6.2448894,11 h 1.1864257 1.1864256 l 1.8369733,1.343228 1.836974,1.343228 -2.249475,3.042578 -2.2494757,3.042578 0.6426255,2.024734 0.6426256,2.024734 2.4610056,1.612513 L 14,27.046106 v 0.816432 0.816432 L 11.452947,29.839485 8.905894,31 Z M 19.945562,30 H 17.93723 L 17.342101,28.449119 16.746973,26.898238 19.0478,24.449119 21.348628,22 h 1.357071 1.357071 l 0.578566,1.50772 0.578567,1.507721 L 23.586898,27.50772 21.953894,30 Z M 14.5,24 H 13.244889 L 12,22.5 10.755111,21 12,19.5 13.244889,18 H 14.5 15.755111 L 17,19.5 18.244889,21 17,22.5 15.755111,24 Z" style="fill:#9d162b"></path></symbol><symbol id="liquid-nitrogen-ui" viewBox="0 0 32 32"><path d="M 16,32 H 0 V 16 0 h 16 16 v 16 16 z" style="fill:#ffffff"></path><path d="M 16.29966,29.960858 14.5,29.921716 11.415186,28.578588 8.3303724,27.235459 6.1914676,24.516282 4.0525629,21.797105 3.4069328,18.355601 2.7613026,14.914097 4.1661633,11.22295 5.5710239,7.5318033 8.9333952,5.2659017 12.295766,3 h 3.401777 3.401777 L 22.032733,4.5169269 24.966146,6.0338538 26.483073,8.967267 28,11.90068 v 1.967873 1.967872 L 27.378819,17.455198 26.757637,19.07397 23.928479,20.536985 21.09932,22 H 18.704647 16.309975 L 14.654988,20.171259 13,18.342519 v -1.737001 -1.737001 l 1.082165,-2.022044 1.082166,-2.022045 2.592466,0.650668 2.592467,0.650668 L 19.052187,10.562882 17.755111,9 H 15.877555 14 l -2,2 -2,2 v 3.076923 3.076923 l 3.001149,3.00115 3.00115,3.001149 3.654391,-0.328073 3.654392,-0.328072 0.408238,1.191338 0.408239,1.191338 -3.01412,1.558662 L 18.09932,30 Z" style="fill:#fefefe"></path><path d="M 16.29966,29.960858 14.5,29.921716 11.415186,28.578588 8.3303724,27.235459 6.1914676,24.516282 4.0525629,21.797105 3.4272182,18.463732 2.8018736,15.130359 4.0040483,11.487733 5.206223,7.8451084 7.6031115,10.096868 10,12.348628 v 3.402609 3.402609 l 3.001149,3.00115 3.00115,3.001149 3.654391,-0.328073 3.654392,-0.328072 0.408238,1.191338 0.408239,1.191338 -3.01412,1.558662 L 18.09932,30 Z" style="fill:#c5abe7"></path></symbol><symbol id="liquid-oil-ui" viewBox="0 0 32 32"><path d="M 16,32 H 0 V 16 0 h 16 16 v 16 16 z" style="fill:#ffffff"></path><path d="M 15,31 H 10.846154 L 7.9230769,28.076923 5,25.153846 V 21.445 17.736154 L 8.5682664,14.370846 12.136533,11.005537 11.449986,8.7527687 10.763439,6.5 9.2053482,4.7263713 7.6472575,2.9527425 8.7679938,1.8320062 9.8887302,0.71126984 12.964613,1.9853422 l 3.075883,1.2740723 2.52755,3.0038229 2.52755,3.0038228 1.952202,3.8266318 L 25,16.920324 v 4.116761 4.116761 L 22.076923,28.076923 19.153846,31 Z" style="fill:#60605a"></path><path d="M 15,31 H 10.846154 L 7.9230769,28.076923 5,25.153846 V 21.445 17.736154 L 8.5682664,14.370846 12.136533,11.005537 11.449986,8.7527687 10.763439,6.5 9.2053482,4.7263713 7.6472575,2.9527425 8.7679938,1.8320062 9.8887302,0.71126984 12.964613,1.9853422 l 3.075883,1.2740723 2.52755,3.0038229 2.52755,3.0038228 1.952202,3.8266318 L 25,16.920324 v 4.116761 4.116761 L 22.076923,28.076923 19.153846,31 Z M 20.278409,19.746745 21.5,19.345762 21.800558,16.837285 22.101116,14.328808 20.6056,13.08764 19.110084,11.846472 16.88337,12.173236 14.656656,12.5 l -0.402192,1.221591 -0.402191,1.221591 2.602272,2.602273 2.602273,2.602272 z" style="fill:#303030"></path><path d="M 15,31 H 10.846154 L 7.9230769,28.076923 5,25.153846 V 21.5 17.846154 l 3.0448718,-3.044872 3.0448722,-3.044872 0.509015,0.509015 0.509015,0.509016 L 10.057625,16.13722 8.0074761,19.5 8.0037381,20.795455 8,22.090909 10.454545,24.545455 12.909091,27 15.704545,26.996262 18.5,26.992524 21.75,25.01096 25,23.029397 v 1.062225 1.062224 L 22.076923,28.076923 19.153846,31 Z" style="fill:#1c1c22"></path></symbol><symbol id="liquid-ozone-ui" viewBox="0 0 32 32"><path d="M 16,32 H 0 V 16 0 h 16 16 v 16 16 z" style="fill:#ffffff"></path><path d="M 16.29966,29.960858 14.5,29.921716 11.415186,28.578588 8.3303724,27.235459 6.1914676,24.516282 4.0525629,21.797105 3.4069328,18.355601 2.7613026,14.914097 4.1661633,11.22295 5.5710239,7.5318033 8.9333952,5.2659017 12.295766,3 h 3.401777 3.401777 L 22.032733,4.5169269 24.966146,6.0338538 26.483073,8.967267 28,11.90068 v 1.967873 1.967872 L 27.378819,17.455198 26.757637,19.07397 23.928479,20.536985 21.09932,22 H 18.704647 16.309975 L 14.654988,20.171259 13,18.342519 v -1.737001 -1.737001 l 1.082165,-2.022044 1.082166,-2.022045 2.592466,0.650668 2.592467,0.650668 L 19.052187,10.562882 17.755111,9 H 15.877555 14 l -2,2 -2,2 v 3.076923 3.076923 l 3.001149,3.00115 3.00115,3.001149 3.654391,-0.328073 3.654392,-0.328072 0.408238,1.191338 0.408239,1.191338 -3.01412,1.558662 L 18.09932,30 Z" style="fill:#febcd3"></path><path d="M 16.29966,29.960858 14.5,29.921716 11.415186,28.578588 8.3303724,27.235459 6.1914676,24.516282 4.0525629,21.797105 3.4272182,18.463732 2.8018736,15.130359 4.0040483,11.487733 5.206223,7.8451084 7.6031115,10.096868 10,12.348628 v 3.402609 3.402609 l 3.001149,3.00115 3.00115,3.001149 3.654391,-0.328073 3.654392,-0.328072 0.408238,1.191338 0.408239,1.191338 -3.01412,1.558662 L 18.09932,30 Z" style="fill:#fb80dc"></path></symbol><symbol id="liquid-slag-ui" viewBox="0 0 32 32"><path d="M 16,32 H 0 V 16 0 h 16 16 v 16 16 z" style="fill:#ffffff"></path><path d="M 15,31 H 10.846154 L 7.9230769,28.076923 5,25.153846 V 21.445 17.736154 L 8.5682664,14.370846 12.136533,11.005537 11.449986,8.7527687 10.763439,6.5 9.2053482,4.7263713 7.6472575,2.9527425 8.7679938,1.8320062 9.8887302,0.71126984 12.964613,1.9853422 l 3.075883,1.2740723 2.52755,3.0038229 2.52755,3.0038228 1.952202,3.8266318 L 25,16.920324 v 4.116761 4.116761 L 22.076923,28.076923 19.153846,31 Z" style="fill:#fefea2"></path><path d="M 15,31 H 10.846154 L 7.9230769,28.076923 5,25.153846 V 21.445 17.736154 L 8.5682664,14.370846 12.136533,11.005537 11.449986,8.7527687 10.763439,6.5 9.2053482,4.7263713 7.6472575,2.9527425 8.7679938,1.8320062 9.8887302,0.71126984 12.964613,1.9853422 l 3.075883,1.2740723 2.52755,3.0038229 2.52755,3.0038228 1.952202,3.8266318 L 25,16.920324 v 4.116761 4.116761 L 22.076923,28.076923 19.153846,31 Z M 20.278409,19.746745 21.5,19.345762 21.800558,16.837285 22.101116,14.328808 20.6056,13.08764 19.110084,11.846472 16.88337,12.173236 14.656656,12.5 l -0.402192,1.221591 -0.402191,1.221591 2.602272,2.602273 2.602273,2.602272 z" style="fill:#fecc65"></path><path d="M 15,31 H 10.846154 L 7.9230769,28.076923 5,25.153846 V 21.5 17.846154 l 3.0448718,-3.044872 3.0448722,-3.044872 0.509015,0.509015 0.509015,0.509016 L 10.057625,16.13722 8.0074761,19.5 8.0037381,20.795455 8,22.090909 10.454545,24.545455 12.909091,27 15.704545,26.996262 18.5,26.992524 21.75,25.01096 25,23.029397 v 1.062225 1.062224 L 22.076923,28.076923 19.153846,31 Z" style="fill:#e18553"></path></symbol><symbol id="liquid-water-ui" viewBox="0 0 32 32"><path d="M 16,32 H 0 V 16 0 h 16 16 v 16 16 z" style="fill:#ffffff"></path><path d="M 15,31 H 10.846154 L 7.9230769,28.076923 5,25.153846 V 21.445 17.736154 L 8.5682664,14.370846 12.136533,11.005537 11.449986,8.7527687 10.763439,6.5 9.2053482,4.7263713 7.6472575,2.9527425 8.7679938,1.8320062 9.8887302,0.71126984 12.964613,1.9853422 l 3.075883,1.2740723 2.52755,3.0038229 2.52755,3.0038228 1.952202,3.8266318 L 25,16.920324 v 4.116761 4.116761 L 22.076923,28.076923 19.153846,31 Z" style="fill:#6f8fe9"></path><path d="M 15,31 H 10.846154 L 7.9230769,28.076923 5,25.153846 V 21.445 17.736154 L 8.5682664,14.370846 12.136533,11.005537 11.449986,8.7527687 10.763439,6.5 9.2053482,4.7263713 7.6472575,2.9527425 8.7679938,1.8320062 9.8887302,0.71126984 12.964613,1.9853422 l 3.075883,1.2740723 2.52755,3.0038229 2.52755,3.0038228 1.952202,3.8266318 L 25,16.920324 v 4.116761 4.116761 L 22.076923,28.076923 19.153846,31 Z M 20.278409,19.746745 21.5,19.345762 21.800558,16.837285 22.101116,14.328808 20.6056,13.08764 19.110084,11.846472 16.88337,12.173236 14.656656,12.5 l -0.402192,1.221591 -0.402191,1.221591 2.602272,2.602273 2.602273,2.602272 z" style="fill:#4769cc"></path><path d="M 15,31 H 10.846154 L 7.9230769,28.076923 5,25.153846 V 21.5 17.846154 l 3.0448718,-3.044872 3.0448722,-3.044872 0.509015,0.509015 0.509015,0.509016 L 10.057625,16.13722 8.0074761,19.5 8.0037381,20.795455 8,22.090909 10.454545,24.545455 12.909091,27 15.704545,26.996262 18.5,26.992524 21.75,25.01096 25,23.029397 v 1.062225 1.062224 L 22.076923,28.076923 19.153846,31 Z" style="fill:#353e99"></path></symbol></svg>