<svg xmlns="http://www.w3.org/2000/svg"><symbol id="status-blasted-ui" viewBox="0 0 38 38"><path d="M 19,38 H 0 V 19 0 h 19 19 v 19 19 z" style="fill:#ffffff"></path><path d="M 14.285714,35 H 12.714286 L 7.8571429,30.142857 3,25.285714 V 23.714286 22.142857 L 4.5714286,20.571429 6.1428571,19 4.5714286,17.428571 3,15.857143 V 14.285714 12.714286 L 7.8571429,7.8571429 12.714286,3 h 1.571428 1.571429 L 17.428571,4.5714286 19,6.1428571 20.571429,4.5714286 22.142857,3 h 1.571429 1.571428 L 30.142857,7.8571429 35,12.714286 v 1.571428 1.571429 L 33.428571,17.428571 31.857143,19 33.428571,20.571429 35,22.142857 v 1.571429 1.571428 L 30.142857,30.142857 25.285714,35 H 23.714286 22.142857 L 20.571429,33.428571 19,31.857143 17.428571,33.428571 15.857143,35 Z M 18.632353,26.866732 18.764706,27 l 4,-4 4,-4 L 22.882353,15.117647 19,11.235294 15.110416,15.124878 11.220832,19.014462 14.860416,22.873963 18.5,26.733464 Z" style="fill:#fe785d"></path><path d="M 14.285714,35 H 12.714286 L 7.8571429,30.142857 3,25.285714 V 23.714286 22.142857 L 4.5714286,20.571429 6.1428571,19 4.5714286,17.428571 3,15.857143 V 14.285714 12.714286 L 7.8571429,7.8571429 12.714286,3 h 1.571428 1.571429 L 17.428571,4.5714286 19,6.1428571 20.571429,4.5714286 22.142857,3 h 1.571429 1.571428 L 30.142857,7.8571429 35,12.714286 v 1.571428 1.571429 L 33.428571,17.428571 31.857143,19 33.428571,20.571429 35,22.142857 v 1.571429 1.571428 L 30.142857,30.142857 25.285714,35 H 23.714286 22.142857 L 20.571429,33.428571 19,31.857143 17.428571,33.428571 15.857143,35 Z m 0.417234,-3 H 16 V 29.804719 27.609438 L 13.312909,24.804719 10.625818,22 H 8.3129088 6 v 1.207837 1.207838 L 9.7029478,28.207837 13.405896,32 Z m 8.504889,0 h 1.207838 L 28.207837,28.297052 32,24.594104 V 23.297052 22 H 29.804719 27.609438 L 24.804719,24.687091 22,27.374182 V 29.687091 32 Z M 18.632353,26.866732 18.764706,27 l 4,-4 4,-4 L 22.882353,15.117647 19,11.235294 15.110416,15.124878 11.220832,19.014462 14.860416,22.873963 18.5,26.733464 Z M 8.3129088,16 H 10.625818 L 13.312909,13.195281 16,10.390562 V 8.1952811 6 H 14.792163 13.584325 L 9.7921626,9.7029478 6,13.405896 V 14.702948 16 Z M 29.687091,16 H 32 V 14.792163 13.584325 L 28.297052,9.7921626 24.594104,6 H 23.297052 22 V 8.1952811 10.390562 L 24.687091,13.195281 27.374182,16 Z" style="fill:#444444"></path></symbol><symbol id="status-boss-ui" viewBox="0 0 44 44"><path d="M 22,44 H 0 V 22 0 h 22 22 v 22 22 z" style="fill:#ffffff"></path><path d="M 20.30239,38.542131 15.5,38.584263 12.75,35.869054 10,33.153846 V 31.484652 29.815459 L 8,27.272871 6,24.730283 v -2.368656 -2.368656 l 7.25,-7.434832 7.25,-7.4348319 4,0.3839723 4,0.3839723 2.25,2.6101379 2.25,2.6101374 v 1.892715 1.892714 l 2.5,2.697545 2.5,2.697544 v 2.46358 2.46358 L 31.55239,31.859602 25.104781,38.5 Z" style="fill:#f15454"></path><path d="M 20.30239,38.542131 15.5,38.584263 12.75,35.869054 10,33.153846 V 31.484652 29.815459 L 8,27.272871 6,24.730283 v -2.368656 -2.368656 l 7.25,-7.434832 7.25,-7.4348319 4,0.3839723 4,0.3839723 2.25,2.6101379 2.25,2.6101374 v 1.892715 1.892714 l 2.5,2.697545 2.5,2.697544 v 2.46358 2.46358 L 31.55239,31.859602 25.104781,38.5 Z M 17.011123,34.46829 17.594188,32.8061 18.919539,34.40305 20.244889,36 h 1.658859 1.658859 L 29.281303,30.221003 35,24.442005 V 22.221003 20 H 34.278997 33.557995 L 27.778997,25.718697 22,31.437393 16.221003,25.718697 10.442005,20 H 9.7210026 9 v 2.345012 2.345013 L 11,26.5 l 2,1.809975 v 2.016272 2.016272 l 1.714029,1.893981 1.714029,1.89398 z M 22.291792,27 h 1.291792 l 4.41235,-4.495858 4.412351,-4.495857 L 31.204142,16.804142 30,15.6 V 13.454988 11.309975 L 28,9.5 26,7.6900249 V 9.5 11.309975 L 23.956374,9.4605187 21.912747,7.6110622 16.72369,12.80012 11.534632,17.989177 14.267316,20.721861 17,23.454545 v -2.38226 -2.38226 L 19,20.5 21,22.309975 V 24.654988 27 Z" style="fill:#444444"></path></symbol><symbol id="status-burning-ui" viewBox="0 0 38 38"><path d="M 19,38 H 0 V 19 0 h 19 19 v 19 19 z" style="fill:#ffffff"></path><path d="M 19,36 H 14.764706 L 10.882353,32.117647 7,28.235294 V 24.308777 20.382259 L 8.4681966,18.44113 9.9363933,16.5 9.9681966,14.673077 10,12.846154 12.988933,9.8572204 15.977867,6.868287 16.88226,7.4272326 17.786653,7.9861783 18.384695,5.6033903 18.982736,3.2206023 20.56964,2.6116501 22.156544,2.002698 25.078272,4.9244259 28,7.8461538 v 4.1483512 4.148352 l 1.5,1.5 1.5,1.5 v 4.546219 4.546218 L 27.117647,32.117647 23.235294,36 Z" style="fill:#fec354"></path><path d="M 19,36 H 14.764706 L 10.882353,32.117647 7,28.235294 V 24.308777 20.382259 L 8.4681966,18.44113 9.9363933,16.5 9.9681966,14.673077 10,12.846154 12.988933,9.8572204 15.977867,6.868287 16.88226,7.4272326 17.786653,7.9861783 18.384695,5.6033903 18.982736,3.2206023 20.56964,2.6116501 22.156544,2.002698 25.078272,4.9244259 28,7.8461538 v 4.1483512 4.148352 l 1.5,1.5 1.5,1.5 v 4.546219 4.546218 L 27.117647,32.117647 23.235294,36 Z m -0.117628,-3 h 3.50819 L 25.195281,30.312909 28,27.625818 V 23.190464 18.755111 L 26.5,20 25,21.244889 v 2.032543 2.032543 L 23,23.5 21,21.690025 V 20 18.309975 L 19,16.5 17,14.690025 v -2.5 -2.5000001 L 15,11.5 13,13.309975 v 2.222568 2.222568 L 11.5,19 10,20.244889 v 3.572837 3.572836 L 12.687091,30.195281 15.374182,33 Z M 24.802132,14.942908 25.104265,8.6598203 23.052132,6.6076879 21,4.5555556 v 6.3934814 6.393482 l 1.75,1.941738 1.75,1.941739 z" style="fill:#444444"></path></symbol><symbol id="status-corroded-ui" viewBox="0 0 38 38"><path d="M 19,38 H 0 V 19 0 h 19 19 v 19 19 z" style="fill:#ffffff"></path><path d="M 11.001111,36 H 10 L 8,34 6,32 V 30.134859 28.269717 L 8.0725801,25.634859 10.14516,23 8.0725801,20.365141 6,17.730283 V 13.765141 9.8 L 9.4,6.4 12.8,3 h 6.2 6.2 l 3.500643,3.5006426 3.500642,3.5006424 -0.541881,4.249358 -0.541881,4.249357 -0.900739,5.415699 -0.900739,5.4157 -2.671352,2.2978 L 23.97334,33.927 22.478038,33.353199 20.982736,32.779398 20.38119,30.382648 19.779644,27.985897 15.890933,31.992949 12.002222,36 Z" style="fill:#a0b36d"></path><path d="M 11.001111,36 H 10 L 8,34 6,32 V 30.134859 28.269717 L 8.0725801,25.634859 10.14516,23 8.0725801,20.365141 6,17.730283 V 13.765141 9.8 L 9.4,6.4 12.8,3 h 6.2 6.2 l 3.500643,3.5006426 3.500642,3.5006424 -0.541881,4.249358 -0.541881,4.249357 -0.900739,5.415699 -0.900739,5.4157 -2.671352,2.2978 L 23.97334,33.927 22.478038,33.353199 20.982736,32.779398 20.38119,30.382648 19.779644,27.985897 15.890933,31.992949 12.002222,36 Z M 11.4375,32.693534 12.5,32.345401 12.816042,28.57748 13.132084,24.809559 15.066042,26.559767 17,28.309975 V 24.654988 21 h 1 1 v 1.345012 1.345013 L 21,25.5 l 2,1.809975 v 2 2 L 25,29.5 27,27.690025 V 23.404029 19.118034 L 28,18.5 29,17.881966 V 14.255434 10.628902 L 26.825686,8.3144512 24.651372,6 H 19.140137 13.628902 L 11.314451,8.174314 9,10.348628 v 3.670698 3.670699 L 11,19.5 13,21.309975 V 23 24.690025 L 11,26.5 9,28.309975 v 1.678346 1.678346 l 0.6875,0.6875 0.6875,0.6875 z M 24.826764,17.061999 24.5,19.234083 22.75,17.288301 21,15.342519 V 13.671259 12 h 0.877555 0.877556 l 1.199208,1.444958 1.199209,1.444958 z M 13.8,16 H 13 v -1.8 -1.8 l 1.2,-1.2 1.2,-1.2 h 0.8 0.8 v 1.8 1.8 l -1.2,1.2 -1.2,1.2 z" style="fill:#444444"></path></symbol><symbol id="status-disarmed-ui" viewBox="0 0 38 38"><path d="M 19,38 H 0 V 19 0 h 19 19 v 19 19 z" style="fill:#ffffff"></path><path d="M 28.148352,35 H 27.142857 L 25.471087,33.32823 23.799318,31.656461 24.411476,27.82823 25.023635,24 h -0.85683 -0.85683 L 21.654988,25.828741 20,27.657481 v 1.599831 1.599831 L 18.428571,32.428571 16.857143,34 H 13.828571 10.8 L 7.4,30.6 4,27.2 V 24.134796 21.069592 L 6.9947608,17.658748 9.9895215,14.247904 7.1210341,13.674207 4.2525467,13.100509 3.6035878,11.40935 2.954629,9.7181902 4.477314,7.3942791 5.9999991,5.070368 7.9275573,4.0387701 9.8551156,3.0071722 11.477812,3.6298595 13.100509,4.2525467 13.674207,7.1210341 14.247904,9.9895215 17.658748,6.9947608 21.069592,4 h 4.010659 4.010658 L 31.545455,6.4545455 34,8.9090909 v 4.0106581 4.010659 L 30.896408,20.465204 27.792816,24 h 2.032163 2.032164 L 33.428571,25.571429 35,27.142857 v 1.005495 1.005494 L 32.076923,32.076923 29.153846,35 Z M 26.5,25 H 27 V 24.5 24 H 26.5 26 v 0.5 0.5 z" style="fill:#e8e9d2"></path><path d="M 28.148352,35 H 27.142857 L 25.471087,33.32823 23.799318,31.656461 24.411476,27.82823 25.023635,24 h -0.85683 -0.85683 L 21.654988,25.828741 20,27.657481 v 1.599831 1.599831 L 18.428571,32.428571 16.857143,34 H 13.828571 10.8 L 7.4,30.6 4,27.2 V 24.134796 21.069592 L 6.9947608,17.658748 9.9895215,14.247904 7.1210341,13.674207 4.2525467,13.100509 3.6035878,11.40935 2.954629,9.7181902 4.477314,7.3942791 5.9999991,5.070368 7.9275573,4.0387701 9.8551156,3.0071722 11.477812,3.6298595 13.100509,4.2525467 13.674207,7.1210341 14.247904,9.9895215 17.658748,6.9947608 21.069592,4 h 4.010659 4.010658 L 31.545455,6.4545455 34,8.9090909 v 4.0106581 4.010659 L 30.896408,20.465204 27.792816,24 h 2.032163 2.032164 L 33.428571,25.571429 35,27.142857 v 1.005495 1.005494 L 32.076923,32.076923 29.153846,35 Z m -0.477093,-3 h 0.67126 L 30.171259,30.345012 32,28.690025 V 27.845012 27 H 29.5 27 V 29.5 32 Z M 14.174314,31 H 17 V 28.654988 26.309975 L 19,24.5 21,22.690025 v -3.5 -3.5 L 23,17.5 l 2,1.809975 v 1.532104 1.532103 L 28,19.5 31,16.625818 V 13.012909 9.4 L 29.8,8.2 28.6,7 H 25.024972 21.449945 L 14.224972,14.273516 7,21.547032 v 2.412033 2.412033 L 9.174314,28.685549 11.348628,31 Z m 2.480674,-5 H 16.309975 L 14.646892,24.162314 12.983809,22.324628 14.991904,20.507326 17,18.690025 V 22.345012 26 Z M 26.5,25 H 27 V 24.5 24 H 26.5 26 V 24.5 25 Z M 8.5,11 H 11 V 8.5 6 H 10.328741 9.6574813 L 7.8287407,7.6549876 6,9.3099751 V 10.154988 11 Z" style="fill:#444444"></path></symbol><symbol id="status-electrified-ui" viewBox="0 0 38 38"><path d="M 19,38 H 0 V 19 0 h 19 19 v 19 19 z" style="fill:#ffffff"></path><path d="m 18.296992,36 h -0.56015 L 13.368421,31.631579 9,27.263158 V 22.499656 17.736154 L 12.5,14.435229 16,11.134304 V 8.1385808 5.1428571 l 1.569446,-1.5694459 1.569446,-1.569446 1.79341,0.9598038 1.79341,0.9598039 3.137144,3.5730098 L 29,11.069592 v 4.597127 4.597127 l -3.5,3.300925 -3.5,3.300925 v 2.995723 2.995724 L 20.428571,34.428571 18.857143,36 Z" style="fill:#97fea8"></path><path d="m 18.296992,36 h -0.56015 L 13.368421,31.631579 9,27.263158 V 22.499656 17.736154 L 12.5,14.435229 16,11.134304 V 8.1385808 5.1428571 l 1.569446,-1.5694459 1.569446,-1.569446 1.79341,0.9598038 1.79341,0.9598039 3.137144,3.5730098 L 29,11.069592 v 4.597127 4.597127 l -3.5,3.300925 -3.5,3.300925 v 2.995723 2.995724 L 20.428571,34.428571 18.857143,36 Z M 18.80226,28.064596 19.104519,23 h 1.619 1.619 L 24.171259,21.345012 26,19.690025 V 15.541179 11.392334 L 22.5,8 19,4.6076664 V 9.8038332 15 h -1.671259 -1.67126 L 13.828741,16.654988 12,18.309975 v 4.047405 4.047406 l 3.25,3.362203 3.25,3.362204 z" style="fill:#444444"></path></symbol><symbol id="status-freezing-ui" viewBox="0 0 38 38"><path d="M 19,38 H 0 V 19 0 h 19 19 v 19 19 z" style="fill:#ffffff"></path><path d="M 19.567863,35.612332 17.934691,36.239039 12.467346,30.771693 7,25.304348 V 19 12.695652 L 12.347826,7.3478261 17.695652,2 H 19 20.304348 l 5.471825,5.4718253 5.471825,5.4718257 -0.472724,1.807702 -0.472725,1.807703 1.348725,1.259899 L 33,19.078853 v 3.037497 3.037496 l -2.905581,2.673077 -2.90558,2.673077 -2.993902,2.242812 -2.993901,2.242813 z" style="fill:#6dcceb"></path><path d="M 19.567863,35.612332 17.934691,36.239039 12.467346,30.771693 7,25.304348 V 19 12.695652 L 12.347826,7.3478261 17.695652,2 H 19 20.304348 l 5.471825,5.4718253 5.471825,5.4718257 -0.472724,1.807702 -0.472725,1.807703 1.348725,1.259899 L 33,19.078853 v 3.037497 3.037496 L 30.094419,27.826923 27.188839,30.5 24.194937,32.742812 21.201036,34.985625 Z M 18.893757,33 h 0.477341 L 21.685549,30.825686 24,28.651372 V 25.884703 23.118034 L 25,22.5 26,21.881966 v -1.954552 -1.954552 l 1.239123,-1.98415 1.239122,-1.984151 L 23.753574,9.2798897 19.028903,4.5552183 14.514451,8.9858171 10,13.416416 v 5.50394 5.503941 L 14.208208,28.712148 18.416416,33 Z M 17.816826,22.367483 17.5,26.234965 15.75,24.288742 14,22.342519 V 19.358351 16.374182 L 17,13.5 20,10.625818 V 13.612909 16.6 l -0.933174,0.95 -0.933173,0.95 z M 28,26.5 30,24.690025 v -3 -3 L 28,20.5 26,22.309975 v 3 3 z" style="fill:#444444"></path></symbol><symbol id="status-melting-ui" viewBox="0 0 38 38"><path d="M 19,38 H 0 V 19 0 h 19 19 v 19 19 z" style="fill:#ffffff"></path><path d="M 19,36 H 8.9090909 L 6.4157812,33.50669 3.9224714,31.013381 4.9666132,29.062384 6.010755,27.111387 7.0053775,26.496677 8,25.881966 V 20.86406 15.846154 l 2.988933,-2.988934 2.988934,-2.988933 0.904393,0.558946 0.904393,0.558945 0.598042,-2.3827877 0.598041,-2.382788 L 18.56964,5.6116501 20.156544,5.002698 23.078272,7.9244259 26,10.846154 v 3.169194 3.169193 l 2,2.542588 2,2.542588 v 1.806125 1.806124 l 0.994623,0.614711 0.994622,0.61471 1.044142,1.950997 1.044142,1.950997 -2.49331,2.493309 L 29.090909,36 Z" style="fill:#fea065"></path><path d="M 19,36 H 8.9090909 L 6.4157812,33.50669 3.9224714,31.013381 4.9666132,29.062384 6.010755,27.111387 7.0053775,26.496677 8,25.881966 V 20.86406 15.846154 l 2.988933,-2.988934 2.988934,-2.988933 0.904393,0.558946 0.904393,0.558945 0.598042,-2.3827877 0.598041,-2.382788 L 18.56964,5.6116501 20.156544,5.002698 23.078272,7.9244259 26,10.846154 v 3.169194 3.169193 l 2,2.542588 2,2.542588 v 1.806125 1.806124 l 0.994623,0.614711 0.994622,0.61471 1.044142,1.950997 1.044142,1.950997 -2.49331,2.493309 L 29.090909,36 Z m 0,-3 h 9.755111 l 1.118913,-1.348208 1.118913,-1.348208 -1.996468,-1.80678 L 27,26.690025 V 24.5 22.309975 L 25,20.5 23,18.690025 V 15 11.309975 L 21,9.5 19,7.6900249 v 4.0000001 4 L 17,17.5 15,19.309975 V 16 12.690025 L 13,14.5 11,16.309975 V 21.5 26.690025 L 9.0035313,28.496804 7.0070626,30.303584 8.125976,31.651792 9.2448894,33 Z M 26.840505,29.521214 26.5,31.220851 24.75,29.281685 23,27.342519 V 25.516272 23.690025 L 21,25.5 19,27.309975 v -2.5 -2.5 L 21,20.5 23,18.690025 v 2.340536 2.340537 l 2.090505,2.22524 2.090504,2.22524 z" style="fill:#444444"></path></symbol><symbol id="status-muddy-ui" viewBox="0 0 38 38"><path d="M 19,38 H 0 V 19 0 h 19 19 v 19 19 z" style="fill:#ffffff"></path><path d="M 19,36 H 8.9090909 L 6.4545455,33.545455 4,31.090909 V 28 24.909091 L 6.4545455,22.454545 8.9090909,20 H 10.454545 12 L 10,18 8,16 V 12 8 l 2,-2 2,-2 h 1 1 l 2,2 2,2 v 4 4 l -2,2 -2,2 h 1.135329 1.13533 l 2.287054,-2.467773 2.287054,-2.467772 0.645341,-2.033289 0.645341,-2.033289 L 24.067725,9.9637549 26,8.9296325 l 1.988193,1.0640483 1.988192,1.0640482 0.624243,2.487181 0.624243,2.487182 -0.560283,2.142525 -0.560284,2.142526 1.947848,2.476287 L 34,25.269717 v 2.910596 2.910596 L 31.545455,33.545455 29.090909,36 Z" style="fill:#444444"></path><path d="M 19,33 H 9.4 L 8.2,31.8 7,30.6 V 28 25.4 L 8.2,24.2 9.4,23 h 5.230449 5.230449 L 20.180449,20.75 20.5,18.5 h 1.5 1.5 l 0.319551,2.25 0.319551,2.25 H 22 19.860898 L 20.180449,25.25 20.5,27.5 H 22 23.5 L 23.819551,25.25 24.139102,23 H 26.369551 28.6 l 1.2,1.2 1.2,1.2 V 28 30.6 L 29.8,31.8 28.6,33 Z M 26.250526,19.749825 25.001052,20.166316 24.421445,18.655884 23.841838,17.145452 24.170919,14.822726 24.5,12.5 h 1.5 1.5 v 3.416667 3.416666 z m -13,-3 -1.249474,0.416491 -0.570985,-1.487962 -0.570984,-1.487961 0.320458,-3.345197 L 11.5,7.5 h 1.5 1.5 v 4.416667 4.416666 z" style="fill:#453729"></path></symbol><symbol id="status-overclock-ui" viewBox="0 0 38 38"><path d="M 19,38 H 0 V 19 0 h 19 19 v 19 19 z" style="fill:#ffffff"></path><path d="M 19,36 H 17.142857 L 15.448245,34.305388 13.753633,32.610776 11.712959,32.460435 9.6722858,32.310095 6.3361429,28.669732 3,25.02937 V 18.871828 12.714286 L 7.8571429,7.8571429 12.714286,3 H 19 25.285714 L 30.142857,7.8571429 35,12.714286 v 6.157542 6.157542 l -3.336143,3.640362 -3.336143,3.640363 -2.040673,0.15034 -2.040674,0.150341 -1.694612,1.694612 L 20.857143,36 Z" style="fill:#fed27e"></path><path d="M 19,36 H 17.142857 L 15.448245,34.305388 13.753633,32.610776 11.712959,32.460435 9.6722858,32.310095 6.3361429,28.669732 3,25.02937 V 18.871828 12.714286 L 7.8571429,7.8571429 12.714286,3 H 19 25.285714 L 30.142857,7.8571429 35,12.714286 v 6.157542 6.157542 l -3.336143,3.640362 -3.336143,3.640363 -2.040673,0.15034 -2.040674,0.150341 -1.694612,1.694612 L 20.857143,36 Z m 0,-3 h 2.126717 L 20.813358,29.75 20.5,26.5 H 19 17.5 L 17.186642,29.75 16.873283,33 Z M 12.187091,30 H 13 V 27.622445 25.244889 L 11.5,24 10,22.755111 V 19.182274 15.609438 L 12.687091,12.804719 15.374182,10 H 19 22.625818 L 25.312909,12.804719 28,15.609438 v 3.572836 3.572837 L 26.5,24 25,25.244889 V 27.622445 30 h 0.695281 0.695281 L 29.195281,27.312909 32,24.625818 V 19.105071 13.584325 L 28.297052,9.7921626 24.594104,6 h -5.504889 -5.50489 L 9.7921626,9.7029478 6,13.405896 v 5.492333 5.492333 L 8.6870912,27.195281 11.374182,30 Z M 16.5,22 19,19.651372 21.5,22 24,24.348628 v -3 -3 L 21.5,16 19,13.651372 16.5,16 14,18.348628 v 3 3 z" style="fill:#444444"></path></symbol><symbol id="status-overdrive-ui" viewBox="0 0 38 38"><path d="M 19,38 H 0 V 19 0 h 19 19 v 19 19 z" style="fill:#ffffff"></path><path d="M 19,35 H 12.714286 L 7.8571429,30.142857 3,25.285714 V 19 12.714286 L 7.8571429,7.8571429 12.714286,3 H 19 25.285714 L 30.142857,7.8571429 35,12.714286 V 19 25.285714 L 30.142857,30.142857 25.285714,35 Z" style="fill:#fed27e"></path><path d="M 19,35 H 12.714286 L 7.8571429,30.142857 3,25.285714 V 19 12.714286 L 7.8571429,7.8571429 12.714286,3 H 19 25.285714 L 30.142857,7.8571429 35,12.714286 V 19 25.285714 L 30.142857,30.142857 25.285714,35 Z m -0.08921,-3 h 5.50489 L 28.207842,28.297052 32,24.594104 v -5.504889 -5.50489 L 28.297052,9.7921626 24.594104,6 h -5.504889 -5.50489 L 9.7921626,9.7029478 6,13.405896 v 5.504889 5.50489 L 9.7029478,28.207837 13.405896,32 h 5.504889 z M 18.88238,28 H 15.37419 L 12.687091,25.195281 10,22.390562 v -3.50819 -3.50819 L 12.804719,12.687091 15.609438,10 H 19 22.390562 L 25.195281,12.687091 28,15.374182 V 19 22.625818 L 25.195281,25.312909 22.390562,28 h -3.50819 z m -0.05613,-4 h 1.516272 L 22.171262,22.345012 24,20.690025 V 19.173753 17.657481 L 22.345012,15.828741 20.690025,14 H 19.173753 17.657481 L 15.828741,15.654988 14,17.309975 v 1.516272 1.516272 l 1.654988,1.82874 L 17.309975,24 h 1.516272 z" style="fill:#444444"></path></symbol><symbol id="status-sapped-ui" viewBox="0 0 38 38"><path d="M 19,38 H 0 V 19 0 h 19 19 v 19 19 z" style="fill:#ffffff"></path><path d="M 19,36 H 17.714286 L 12.857143,31.142857 8,26.285714 V 21.714286 17.142857 L 9.5714286,15.571429 11.142857,14 h 1.017465 1.017465 L 10.588894,10.923275 8,7.8465494 V 6.4947033 5.1428571 L 9.5714286,3.5714286 11.142857,2 H 19 26.857143 L 28.428571,3.5714286 30,5.1428571 V 6.4947033 7.8465494 L 27.411106,10.923275 24.822213,14 h 1.017465 1.017465 L 28.428571,15.571429 30,17.142857 v 4.571429 4.571428 L 25.142857,31.142857 20.285714,36 Z" style="fill:#675d9f"></path><path d="M 19,36 H 17.714286 L 12.857143,31.142857 8,26.285714 V 21.714286 17.142857 L 9.5714286,15.571429 11.142857,14 h 1.017465 1.017465 L 10.588894,10.923275 8,7.8465494 V 6.4947033 5.1428571 L 9.5714286,3.5714286 11.142857,2 H 19 26.857143 L 28.428571,3.5714286 30,5.1428571 V 6.4947033 7.8465494 L 27.411106,10.923275 24.822213,14 h 1.017465 1.017465 L 28.428571,15.571429 30,17.142857 v 4.571429 4.571428 L 25.142857,31.142857 20.285714,36 Z m -0.08921,-3 h 0.50489 L 23.207842,29.297052 27,25.594104 V 21.297052 17 H 25.314451 23.628902 L 21.314451,19.174314 19,21.348628 16.685549,19.174314 14.371098,17 H 12.685549 11 v 4.207837 4.207838 L 14.702948,29.207837 18.405896,33 h 0.504889 z m 0,-18 h 0.50489 L 23.207842,11.297052 27,7.5941045 V 6.2970522 5 H 19 11 V 6.2078374 7.4156747 L 14.702948,11.207837 18.405896,15 h 0.504889 z" style="fill:#444444"></path></symbol><symbol id="status-shielded-ui" viewBox="0 0 38 38"><path d="M 19,38 H 0 V 19 0 h 19 19 v 19 19 z" style="fill:#ffffff"></path><path d="M 19,35 H 13.714286 L 8.8571429,30.142857 4,25.285714 V 16.214286 7.1428571 L 5.5714286,5.5714286 7.1428571,4 H 9.0685477 10.994238 L 14.997119,7.6163623 19,11.232725 23.002881,7.6163623 27.005762,4 h 1.92569 1.925691 L 32.428571,5.5714286 34,7.1428571 v 9.0714289 9.071428 L 29.142857,30.142857 24.285714,35 Z" style="fill:#fed27e"></path><path d="M 19,35 H 13.714286 L 8.8571429,30.142857 4,25.285714 V 16.214286 7.1428571 L 5.5714286,5.5714286 7.1428571,4 H 9.0685477 10.994238 L 14.997119,7.6163623 19,11.232725 23.002881,7.6163623 27.005762,4 h 1.92569 1.925691 L 32.428571,5.5714286 34,7.1428571 v 9.0714289 9.071428 L 29.142857,30.142857 24.285714,35 Z m -0.08921,-3 h 4.50489 L 27.207842,28.297052 31,24.594104 V 15.797052 7 H 29.287852 27.575703 L 23.287852,11.208208 19,15.416416 14.712148,11.208208 10.424297,7 H 8.7121485 7 v 8.707837 8.707838 L 10.702948,28.207837 14.405896,32 h 4.504889 z M 18.89856,27 H 17.392334 L 14.196167,23.702393 11,20.404786 V 17.499445 14.594104 L 15,18.5 19,22.405896 23,18.5 27,14.594104 v 3.006781 3.006781 L 23.702393,23.803833 20.404786,27 Z" style="fill:#444444"></path></symbol><symbol id="status-shocked-ui" viewBox="0 0 38 38"><path d="M 19,38 H 0 V 19 0 h 19 19 v 19 19 z" style="fill:#ffffff"></path><path d="m 18.296992,36 h -0.56015 L 13.368421,31.631579 9,27.263158 V 22.499656 17.736154 L 12.5,14.435229 16,11.134304 V 8.1385808 5.1428571 l 1.569446,-1.5694459 1.569446,-1.569446 1.79341,0.9598038 1.79341,0.9598039 3.137144,3.5730098 L 29,11.069592 v 4.597127 4.597127 l -3.5,3.300925 -3.5,3.300925 v 2.995723 2.995724 L 20.428571,34.428571 18.857143,36 Z" style="fill:#a8d7fe"></path><path d="m 18.296992,36 h -0.56015 L 13.368421,31.631579 9,27.263158 V 22.499656 17.736154 L 12.5,14.435229 16,11.134304 V 8.1385808 5.1428571 l 1.569446,-1.5694459 1.569446,-1.569446 1.79341,0.9598038 1.79341,0.9598039 3.137144,3.5730098 L 29,11.069592 v 4.597127 4.597127 l -3.5,3.300925 -3.5,3.300925 v 2.995723 2.995724 L 20.428571,34.428571 18.857143,36 Z M 18.80226,28.064596 19.104519,23 h 1.619 1.619 L 24.171259,21.345012 26,19.690025 V 15.541179 11.392334 L 22.5,8 19,4.6076664 V 9.8038332 15 h -1.671259 -1.67126 L 13.828741,16.654988 12,18.309975 v 4.047405 4.047406 l 3.25,3.362203 3.25,3.362204 z" style="fill:#444444"></path></symbol><symbol id="status-slow-ui" viewBox="0 0 38 38"><path d="M 19,38 H 0 V 19 0 h 19 19 v 19 19 z" style="fill:#ffffff"></path><path d="M 19,36 H 17.714286 L 12.857143,31.142857 8,26.285714 V 21.714286 17.142857 L 9.5714286,15.571429 11.142857,14 h 1.017465 1.017465 L 10.588894,10.923275 8,7.8465494 V 6.4947033 5.1428571 L 9.5714286,3.5714286 11.142857,2 H 19 26.857143 L 28.428571,3.5714286 30,5.1428571 V 6.4947033 7.8465494 L 27.411106,10.923275 24.822213,14 h 1.017465 1.017465 L 28.428571,15.571429 30,17.142857 v 4.571429 4.571428 L 25.142857,31.142857 20.285714,36 Z" style="fill:#a2a2a2"></path><path d="M 19,36 H 17.714286 L 12.857143,31.142857 8,26.285714 V 21.714286 17.142857 L 9.5714286,15.571429 11.142857,14 h 1.017465 1.017465 L 10.588894,10.923275 8,7.8465494 V 6.4947033 5.1428571 L 9.5714286,3.5714286 11.142857,2 H 19 26.857143 L 28.428571,3.5714286 30,5.1428571 V 6.4947033 7.8465494 L 27.411106,10.923275 24.822213,14 h 1.017465 1.017465 L 28.428571,15.571429 30,17.142857 v 4.571429 4.571428 L 25.142857,31.142857 20.285714,36 Z m -0.08921,-3 h 0.50489 L 23.207842,29.297052 27,25.594104 V 21.297052 17 H 25.314451 23.628902 L 21.314451,19.174314 19,21.348628 16.685549,19.174314 14.371098,17 H 12.685549 11 v 4.207837 4.207838 L 14.702948,29.207837 18.405896,33 h 0.504889 z m 0,-18 h 0.50489 L 23.207842,11.297052 27,7.5941045 V 6.2970522 5 H 19 11 V 6.2078374 7.4156747 L 14.702948,11.207837 18.405896,15 h 0.504889 z" style="fill:#444444"></path></symbol><symbol id="status-spore-slowed-ui" viewBox="0 0 38 38"><path d="M 19,38 H 0 V 19 0 h 19 19 v 19 19 z" style="fill:#ffffff"></path><path d="M 14.138217,36 H 13.078853 L 11.789427,34.452106 10.5,32.904212 9.1783243,31.702106 7.8566486,30.5 5.9283243,28.75 4,27 V 23.634859 20.269717 L 6,17.727129 8,15.184541 V 11.515348 7.8461538 L 10.923077,4.9230769 13.846154,2 h 5.708502 5.708502 L 29.631579,6.3684211 34,10.736842 v 4.49672 4.496721 L 32.152491,22.115141 30.304981,24.5 29.636614,27.23735 28.968246,29.9747 26.625028,31.510036 24.28181,33.045371 22.640905,32.415697 21,31.786022 V 30.787256 29.788489 L 18.09879,32.894245 15.19758,36 Z" style="fill:#7356cd"></path><path d="M 14.138217,36 H 13.078853 L 11.789427,34.452106 10.5,32.904212 9.1783243,31.702106 7.8566486,30.5 5.9283243,28.75 4,27 V 23.634859 20.269717 L 6,17.727129 8,15.184541 V 11.515348 7.8461538 L 10.923077,4.9230769 13.846154,2 h 5.708502 5.708502 L 29.631579,6.3684211 34,10.736842 v 4.49672 4.496721 L 32.152491,22.115141 30.304981,24.5 29.636614,27.23735 28.968246,29.9747 26.625028,31.510036 24.28181,33.045371 22.640905,32.415697 21,31.786022 V 30.787256 29.788489 L 18.09879,32.894245 15.19758,36 Z M 14.377325,32.726199 15.5,32.370615 16.399606,30.435307 17.299212,28.5 20.149606,26.173942 23,23.847883 V 26.923942 30 h 0.8 0.8 L 25.8,28.8 27,27.6 V 25.454988 23.309975 L 29,21.5 31,19.690025 V 15.64262 11.595214 L 27.803833,8.2976072 24.607666,5 H 19.632574 14.657481 L 12.828741,6.6549876 11,8.3099751 V 12.5 16.690025 L 9,18.5 7,20.309975 v 3.369763 3.369764 l 2.5967682,0.987289 2.5967678,0.98729 0.530557,2.028851 0.530557,2.028851 z M 15.812909,15 H 15 V 13.2 11.4 L 16.2,10.2 17.4,9 h 2.487091 2.487091 L 19.5,12 16.625818,15 Z" style="fill:#444444"></path></symbol><symbol id="status-tarred-ui" viewBox="0 0 38 38"><path d="M 19,38 H 0 V 19 0 h 19 19 v 19 19 z" style="fill:#ffffff"></path><path d="M 19,36 H 8.9090909 L 6.4545455,33.545455 4,31.090909 V 28 24.909091 L 6.4545455,22.454545 8.9090909,20 H 10.454545 12 L 10,18 8,16 V 12 8 l 2,-2 2,-2 h 1 1 l 2,2 2,2 v 4 4 l -2,2 -2,2 h 1.135329 1.13533 l 2.287054,-2.467773 2.287054,-2.467772 0.645341,-2.033289 0.645341,-2.033289 L 24.067725,9.9637549 26,8.9296325 l 1.988193,1.0640483 1.988192,1.0640482 0.624243,2.487181 0.624243,2.487182 -0.560283,2.142525 -0.560284,2.142526 1.947848,2.476287 L 34,25.269717 v 2.910596 2.910596 L 31.545455,33.545455 29.090909,36 Z" style="fill:#444444"></path><path d="M 19,33 H 9.4 L 8.2,31.8 7,30.6 V 28 25.4 L 8.2,24.2 9.4,23 h 5.230449 5.230449 L 20.180449,20.75 20.5,18.5 h 1.5 1.5 l 0.319551,2.25 0.319551,2.25 H 22 19.860898 L 20.180449,25.25 20.5,27.5 H 22 23.5 L 23.819551,25.25 24.139102,23 H 26.369551 28.6 l 1.2,1.2 1.2,1.2 V 28 30.6 L 29.8,31.8 28.6,33 Z M 26.250526,19.749825 25.001052,20.166316 24.421445,18.655884 23.841838,17.145452 24.170919,14.822726 24.5,12.5 h 1.5 1.5 v 3.416667 3.416666 z m -13,-3 -1.249474,0.416491 -0.570985,-1.487962 -0.570984,-1.487961 0.320458,-3.345197 L 11.5,7.5 h 1.5 1.5 v 4.416667 4.416666 z" style="fill:#303030"></path></symbol><symbol id="status-unmoving-ui" viewBox="0 0 38 38"><path d="M 19,38 H 0 V 19 0 h 19 19 v 19 19 z" style="fill:#ffffff"></path><path d="M 12.351648,34 H 9.8461538 L 6.9230769,31.076923 4,28.153846 V 19 9.8461538 L 6.9230769,6.9230769 9.8461538,4 h 2.5054942 2.505495 L 16.428571,5.5714286 18,7.1428571 V 19 30.857143 L 16.428571,32.428571 14.857143,34 Z m 13.296704,0 H 23.142857 L 21.571429,32.428571 20,30.857143 V 19 7.1428571 L 21.571429,5.5714286 23.142857,4 h 2.505495 2.505494 L 31.076923,6.9230769 34,9.8461538 V 19 28.153846 L 31.076923,31.076923 28.153846,34 Z" style="fill:#444444"></path></symbol><symbol id="status-wet-ui" viewBox="0 0 38 38"><path d="M 19,38 H 0 V 19 0 h 19 19 v 19 19 z" style="fill:#ffffff"></path><path d="M 19,36 H 14.8 L 11.275158,32.475158 7.7503155,28.950316 8.226426,23.99534 8.7025364,19.040364 6.8246267,18.444339 4.946717,17.848313 3.3904305,15.47312 1.834144,13.097926 2.4929154,11.022322 3.1516867,8.946717 5.5268801,7.3904305 7.9020735,5.834144 l 2.0756048,0.6587714 2.0756047,0.6587713 1.58331,2.4164363 1.58331,2.416436 -0.598497,1.559658 -0.598497,1.559659 0.988545,-0.610955 L 16,13.881966 V 9.5124116 5.1428571 L 17.571429,3.5714286 19.142857,2 h 0.974026 0.974026 L 23.545455,4.4545455 26,6.9090909 v 1.1377253 1.1377252 l 2,2.5425876 2,2.542588 V 21.734859 29.2 l -3.4,3.4 -3.4,3.4 z" style="fill:#4068e0"></path><path d="M 19,36 H 14.8 L 11.275158,32.475158 7.7503155,28.950316 8.226426,23.99534 8.7025364,19.040364 6.8246267,18.444339 4.946717,17.848313 3.3904305,15.47312 1.834144,13.097926 2.4929154,11.022322 3.1516867,8.946717 5.5268801,7.3904305 7.9020735,5.834144 l 2.0756048,0.6587714 2.0756047,0.6587713 1.58331,2.4164363 1.58331,2.416436 -0.598497,1.559658 -0.598497,1.559659 0.988545,-0.610955 L 16,13.881966 V 9.5124116 5.1428571 L 17.571429,3.5714286 19.142857,2 h 0.974026 0.974026 L 23.545455,4.4545455 26,6.9090909 v 1.1377253 1.1377252 l 2,2.5425876 2,2.542588 V 21.734859 29.2 l -3.4,3.4 -3.4,3.4 z m -0.140137,-3 h 3.511235 L 24.685549,30.825686 27,28.651372 V 21.480674 14.309975 L 25,12.5 23,10.690025 V 9.0450124 7.4 L 21.8,6.2 20.6,5 H 19.8 19 v 5.531385 5.531385 l -1.75,0.617627 -1.75,0.617628 -2.25,2.025301 -2.25,2.025302 v 3.511235 3.511235 L 13.174314,30.685549 15.348628,33 Z M 8.8008558,15.792889 10.285633,15.5 11.375866,13.768764 12.466099,12.037527 10.810591,10.382019 9.1550829,8.7265115 7.5548603,9.3405745 5.9546376,9.9546376 5.3654431,11.490054 4.7762487,13.02547 l 1.2699147,1.530154 1.2699148,1.530153 z" style="fill:#444444"></path></symbol></svg>