<svg xmlns="http://www.w3.org/2000/svg"><symbol id="team-crux" viewBox="0 0 62 62"><path d="M 31,62 H 0 V 31 0 h 31 31 v 31 31 z" style="fill:#ffffff"></path><path d="M 31.284272,62 H 30.153451 L 27.25014,59.557025 24.346829,57.11405 22.659468,59.084745 20.972106,61.055439 19.149803,60.080172 17.3275,59.104905 13.66375,55.049572 10,50.994238 V 46.879134 42.76403 L 7,39.347219 4,35.930408 V 31.536632 27.142857 L 5.5714286,25.571429 7.1428571,24 H 7.724977 8.3070968 L 19.653548,35.194682 31,46.389364 42.346452,35.194682 53.692903,24 h 0.58212 0.58212 L 56.428571,25.571429 58,27.142857 v 4.636119 4.636118 L 45.207547,49.207547 32.415094,62 Z M 31.089247,44 H 29.909091 L 27.454545,41.545455 25,39.090909 V 35.745455 32.4 L 23.864286,31.264286 22.728571,30.128571 21.29484,31.562303 19.861108,32.996035 18.094304,32.05047 16.3275,31.104905 12.66375,27.049572 9,22.994238 v -1.13182 -1.131821 l 9.25,-9.451715 9.25,-9.451714 1.817058,-0.98465598 1.817058,-0.984656 2.195162,1.43832578 2.195163,1.4383257 1.285977,-1.376643 1.285977,-1.37664302 1.788052,0.95693657 L 41.6725,1.8950946 45.33625,5.9504281 49,10.005762 v 3.037611 3.037612 l 2.099378,2.83956 2.099377,2.83956 -1.012961,1.869948 L 51.172832,25.5 41.721118,34.75 32.269403,44 Z" style="fill:#f15454"></path><path d="M 31.284272,62 H 30.153451 L 27.25014,59.557025 24.346829,57.11405 22.659468,59.084745 20.972106,61.055439 19.149803,60.080172 17.3275,59.104905 13.66375,55.049572 10,50.994238 V 46.879134 42.76403 L 7,39.347219 4,35.930408 V 31.536632 27.142857 L 5.5714286,25.571429 7.1428571,24 H 7.724977 8.3070968 L 19.653548,35.194682 31,46.389364 42.346452,35.194682 53.692903,24 h 0.58212 0.58212 L 56.428571,25.571429 58,27.142857 v 4.636119 4.636118 L 45.207547,49.207547 32.415094,62 Z m -0.281798,-3 h 0.52879 L 43.265632,47.23498 55,35.469961 V 31.000612 26.531264 L 43,38.5 31,50.468736 19,38.5 7,26.531264 v 4.547277 4.547277 L 10,38.5 l 3,2.874182 v 4.609961 4.609961 L 17,54.5 l 4,3.905896 v -4.43979 -4.43979 L 25.736842,54.263158 30.473684,59 Z m 0.08677,-15 H 29.909091 L 27.454545,41.545455 25,39.090909 V 35.745455 32.4 L 23.864286,31.264286 22.728571,30.128571 21.29484,31.562303 19.861108,32.996035 18.094304,32.05047 16.3275,31.104905 12.66375,27.049572 9,22.994238 v -1.13182 -1.131821 l 9.25,-9.451715 9.25,-9.451714 1.817058,-0.98465598 1.817058,-0.984656 2.195162,1.43832578 2.195163,1.4383257 1.285977,-1.376643 1.285977,-1.37664302 1.788052,0.95693657 L 41.6725,1.8950946 45.33625,5.9504281 49,10.005762 v 3.037611 3.037612 l 2.099378,2.83956 2.099377,2.83956 -1.012961,1.869948 L 51.172832,25.5 41.721118,34.75 32.269403,44 Z M 30.96975,41 h 0.569751 L 40.971217,31.528903 50.402934,22.057806 48.201467,19.714452 46,17.371098 V 13.888497 10.405896 L 42,6.5 38,2.5941045 V 5.993219 9.3923336 l -3.524082,-3.4156747 -3.524082,-3.4156746 -9.71536,9.7153597 -9.71536,9.71536 4.239442,4.239442 L 20,30.470588 V 27.032346 23.594104 L 24,27.5 28,31.405896 V 35.002948 38.6 l 1.2,1.2 1.2,1.2 z" style="fill:#444444"></path></symbol><symbol id="team-derelict" viewBox="0 0 62 62"><path d="M 31,62 H 0 V 31 0 h 31 31 v 31 31 z" style="fill:#ffffff"></path><path d="m 31.06862,61 h -1.217095 l -6.020308,-5.742402 -6.020308,-5.742401 -0.915744,-1.711083 -0.915744,-1.711083 3.147434,-3.584729 3.147433,-3.584729 1.755983,-0.939773 1.755982,-0.939774 2.596197,2.042169 2.596197,2.042169 2.125479,-1.488743 2.125479,-1.488744 1.549242,0.5945 1.549243,0.5945 -0.781817,-1.265006 -0.781817,-1.265006 2.175999,-2.943196 2.175999,-2.943196 L 36.308227,25.598668 31.5,20.273864 27.272343,24.136932 23.044686,28 h -1.445618 -1.445617 l -3.099268,-2.607861 -3.099267,-2.607862 -1.03981,-1.942903 -1.03981,-1.942903 7.812352,-8.040183 L 27.5,2.8181037 29.317058,1.8379799 31.134116,0.85785602 33.531874,2.4289275 35.929632,3.9999991 37.064194,6.1199468 38.198755,8.2398946 36.099378,11.079455 34,13.919015 v 0.629386 0.629386 l 3.072455,-2.5853 3.072455,-2.585301 1.677545,0.908635 1.677545,0.908634 8.75,8.959004 8.75,8.959004 v 1.203006 1.203006 l -5.742402,6.020308 -5.742401,6.020308 -1.824656,0.976527 -1.824657,0.976526 -2.259411,-1.480423 -2.259411,-1.480423 0.12479,4.159351 L 41.596641,51.5 36.941178,56.25 32.285714,61 Z M 15.863069,44.073283 13.828707,45.162041 7.4143536,38.747687 1,32.333333 V 31.04902 29.764706 L 4.8823529,25.882353 8.7647059,22 h 1.2605041 1.260504 l 4.929863,4.929863 4.929863,4.929863 -0.987928,1.84596 -0.987928,1.84596 0.873612,1.561058 0.873612,1.561057 -1.509689,2.155383 -1.509689,2.155382 z" style="fill:#b6b7c8"></path><path d="m 31.06862,61 h -1.217095 l -6.020308,-5.742402 -6.020308,-5.742401 -0.915744,-1.711083 -0.915744,-1.711083 3.147434,-3.584729 3.147433,-3.584729 1.755983,-0.939773 1.755982,-0.939774 2.596197,2.042169 2.596197,2.042169 2.125479,-1.488743 2.125479,-1.488744 1.549242,0.5945 1.549243,0.5945 -0.781817,-1.265006 -0.781817,-1.265006 2.175999,-2.943196 2.175999,-2.943196 L 36.308227,25.598668 31.5,20.273864 27.272343,24.136932 23.044686,28 h -1.445618 -1.445617 l -3.099268,-2.607861 -3.099267,-2.607862 -1.03981,-1.942903 -1.03981,-1.942903 7.812352,-8.040183 L 27.5,2.8181037 29.317058,1.8379799 31.134116,0.85785602 33.531874,2.4289275 35.929632,3.9999991 37.064194,6.1199468 38.198755,8.2398946 36.099378,11.079455 34,13.919015 v 0.629386 0.629386 l 3.072455,-2.5853 3.072455,-2.585301 1.677545,0.908635 1.677545,0.908634 8.75,8.959004 8.75,8.959004 v 1.203006 1.203006 l -5.742402,6.020308 -5.742401,6.020308 -1.824656,0.976527 -1.824657,0.976526 -2.259411,-1.480423 -2.259411,-1.480423 0.12479,4.159351 L 41.596641,51.5 36.941178,56.25 32.285714,61 Z m -0.05287,-3 h 0.578355 l 3.70682,-3.796128 3.70682,-3.796128 -1.16149,-1.16149 -1.161491,-1.161491 1.295631,-1.561139 1.29563,-1.561139 -1.807043,-1.99676 -1.807043,-1.99676 -2.358275,2.215484 -2.358275,2.215484 -2.687721,-2.687721 -2.687721,-2.687721 -3.297518,3.19608 -3.297517,3.19608 5.731241,5.791675 L 30.437393,58 h 0.578356 z M 45.968396,43 h 0.594212 L 52.505213,36.994733 58.447818,30.989466 49.51129,22.011343 40.574764,13.033219 37.787382,15.703701 35,18.374182 v 1.031464 1.031463 l 5.201247,5.26667 5.201248,5.266669 -2.888339,3.014776 L 39.625818,37 42.5,40 45.374182,43 Z M 21.474683,25 h 1.100501 L 27.383492,20.118287 32.1918,15.236573 31.013903,14.508592 29.836005,13.780612 32.622283,10.872364 35.408561,7.9641165 33.202115,5.7576709 30.99567,3.5512253 23.013173,11.486904 15.030677,19.422582 17.70243,22.211291 20.374182,25 Z M 15.863069,44.073283 13.828707,45.162041 7.4143536,38.747687 1,32.333333 V 31.04902 29.764706 L 4.8823529,25.882353 8.7647059,22 h 1.2605041 1.260504 l 4.929863,4.929863 4.929863,4.929863 -0.987928,1.84596 -0.987928,1.84596 0.873612,1.561058 0.873612,1.561057 -1.509689,2.155383 -1.509689,2.155382 z m 0.362859,-3.777745 1.836328,-1.661854 -1.510688,-1.510687 -1.510688,-1.510688 1.464336,-1.618073 1.464336,-1.618072 L 13.9707,28.471389 9.9718474,24.566614 6.7626658,27.775796 3.5534842,30.984977 8.9715424,36.471184 14.3896,41.957392 Z" style="fill:#444444"></path></symbol><symbol id="team-malis" viewBox="0 0 62 62"><path d="M 31,62 H 0 V 31 0 h 31 31 v 31 31 z" style="fill:#ffffff"></path><path d="M 12,58 H 10.714286 L 5.8571429,53.142857 1,48.285714 V 47 45.714286 L 5.9883717,40.725914 10.976743,35.737542 7.9883717,32.333975 5,28.930408 V 27.759321 26.588235 L 17.294118,14.294118 29.588235,2 H 31 32.411765 L 44.705882,14.294118 57,26.588235 v 1.171086 1.171087 l -2.988372,3.403567 -2.988371,3.403567 4.988371,4.988372 L 61,45.714286 V 47 48.285714 L 56.142857,53.142857 51.285714,58 H 50 48.714286 L 43.725914,53.011628 38.737542,48.023257 35.333975,51.011628 31.930408,54 H 31 30.069592 L 26.666025,51.011628 23.262458,48.023257 18.274086,53.011628 13.285714,58 Z m 6.709424,-20.887967 2.445242,-3.12444 2.042614,-1.093174 2.042615,-1.093174 2.880052,2.129315 L 31,36.059875 l 2.947619,-2.179269 2.947619,-2.179269 2.538453,1.663259 2.538454,1.663259 1.662581,2.537419 1.662581,2.537419 0.900419,-0.900419 0.900419,-0.900419 L 39.465536,30.900927 31.832927,23.5 H 31 30.167073 l -7.580502,7.350402 -7.580501,7.350402 0.629056,1.017834 0.629056,1.017835 z" style="fill:#a17be4"></path><path d="M 12,58 H 10.714286 L 5.8571429,53.142857 1,48.285714 V 47 45.714286 L 5.9883717,40.725914 10.976743,35.737542 7.9883717,32.333975 5,28.930408 V 27.759321 26.588235 L 17.294118,14.294118 29.588235,2 H 31 32.411765 L 44.705882,14.294118 57,26.588235 v 1.171086 1.171087 l -2.988372,3.403567 -2.988371,3.403567 4.988371,4.988372 L 61,45.714286 V 47 48.285714 L 56.142857,53.142857 51.285714,58 H 50 48.714286 L 43.725914,53.011628 38.737542,48.023257 35.333975,51.011628 31.930408,54 H 31 30.069592 L 26.666025,51.011628 23.262458,48.023257 18.274086,53.011628 13.285714,58 Z m 0,-3 h 0.594104 L 16.296867,51.208027 19.99963,47.416053 15.707265,43.203416 11.4149,38.990778 7.5045025,42.995389 3.5941045,47 7.5,51 l 3.905896,4 z m 38,0 h 0.594104 L 54.5,51 58.405896,47 54.495498,42.995389 50.5851,38.990778 46.292735,43.203416 42.00037,47.416053 45.703133,51.208027 49.405896,55 Z M 31,51 h 0.56832 l 5.437361,-5.505752 5.43736,-5.505752 -2.700999,-2.701 -2.701,-2.700999 L 34.020521,37.48034 31,40.374182 27.979479,37.48034 l -3.020521,-2.893843 -2.701,2.700999 -2.700999,2.701 5.43736,5.505752 L 30.43168,51 Z M 18.709424,37.112033 21.154666,33.987593 23.19728,32.894419 25.239895,31.801245 28.119947,33.93056 31,36.059875 l 2.947619,-2.179269 2.947619,-2.179269 2.538453,1.663259 2.538454,1.663259 1.662581,2.537419 1.662581,2.537419 0.900419,-0.900419 0.900419,-0.900419 L 39.465536,30.900927 31.832927,23.5 H 31 30.167073 l -7.580502,7.350402 -7.580501,7.350402 0.629056,1.017834 0.629056,1.017835 z M 22.712339,26.788764 31,18.544156 l 8.287661,8.244608 8.28766,8.244608 L 51.007706,31.49205 54.44009,27.950728 42.720045,16.230683 31,4.5106383 19.279955,16.230683 7.5599102,27.950728 l 3.4323838,3.541322 3.432385,3.541322 z" style="fill:#444444"></path></symbol><symbol id="team-sharded" viewBox="0 0 62 62"><path d="M 31,62 H 0 V 31 0 h 31 31 v 31 31 z" style="fill:#ffffff"></path><path d="M 20.261905,56 H 14.666667 L 8.3097947,49.643128 1.9529228,43.286256 2.6027347,41.592873 3.2525467,39.899491 6.1210341,39.325793 8.9895215,38.752096 5.9947608,35.341252 3,31.930408 V 30.815761 29.701115 L 13.75,18.767519 24.5,7.8339234 26.177545,6.9205548 27.85509,6.0071861 31.133035,8.7535931 34.410981,11.5 33.696299,10.33062 32.981618,9.1612396 34.562237,7.5806198 36.142857,6 h 5.595238 5.595238 l 6.356872,6.356872 6.356872,6.356872 -0.649812,1.693383 -0.649812,1.693382 -2.868487,0.573698 -2.868488,0.573697 2.994761,3.410844 L 59,30.069592 v 1.114647 1.114646 L 48.25,43.232481 37.5,54.166077 35.822455,55.079445 34.14491,55.992814 30.866965,53.246407 27.589019,50.5 l 0.714682,1.16938 0.714681,1.16938 -1.580619,1.58062 L 25.857143,56 Z M 31,35 h 0.690025 L 33.531941,32.964706 35.373856,30.929412 33.186928,28.742484 31,26.555556 28.813072,28.742484 26.626144,30.929412 28.468059,32.964706 30.309975,35 Z" style="fill:#fed27e"></path><path d="M 20.261905,56 H 14.666667 L 8.3097947,49.643128 1.9529228,43.286256 2.6027347,41.592873 3.2525467,39.899491 6.1210341,39.325793 8.9895215,38.752096 5.9947608,35.341252 3,31.930408 V 30.815761 29.701115 L 13.75,18.767519 24.5,7.8339234 26.177545,6.9205548 27.85509,6.0071861 31.133035,8.7535931 34.410981,11.5 33.696299,10.33062 32.981618,9.1612396 34.562237,7.5806198 36.142857,6 h 5.595238 5.595238 l 6.356872,6.356872 6.356872,6.356872 -0.649812,1.693383 -0.649812,1.693382 -2.868487,0.573698 -2.868488,0.573697 2.994761,3.410844 L 59,30.069592 v 1.114647 1.114646 L 48.25,43.232481 37.5,54.166077 35.822455,55.079445 34.14491,55.992814 30.866965,53.246407 27.589019,50.5 l 0.714682,1.16938 0.714681,1.16938 -1.580619,1.58062 L 25.857143,56 Z m 0.669775,-3 h 5.5 L 21,47.5 15.56832,42 h -5.5 -5.4999997 L 10,47.5 15.43168,53 Z m 24.528426,-10.971217 11,-11 L 51.014213,25.514392 45.56832,20 H 42.063158 38.557995 L 33.006012,14.505949 27.45403,9.0118989 16.502662,19.99733 5.5512947,30.98276 10.991487,36.49138 16.43168,42 H 20 23.56832 l 5.445893,5.514392 5.445893,5.514391 z M 31,39 H 30.405896 L 26.484019,34.983634 22.562143,30.967269 26.781072,26.74834 31,22.529412 35.218928,26.74834 39.437857,30.967269 35.515981,34.983634 31.594104,39 Z m 0,-4 h 0.690025 L 33.531941,32.964706 35.373856,30.929412 33.186928,28.742484 31,26.555556 28.813072,28.742484 26.626144,30.929412 28.468059,32.964706 30.309975,35 Z M 51.93168,20 h 5.5 L 52,14.5 46.56832,9 h -5.5 -5.5 L 41,14.5 46.43168,20 Z" style="fill:#444444"></path></symbol></svg>