<svg xmlns="http://www.w3.org/2000/svg" version="1.1"><symbol id="item-beryllium-ui" viewBox="0 0 32 32"><path d="M 16,32 H 0 V 16 0 h 16 16 v 16 16 z" style="fill:#ffffff"></path><path d="M 8.0193265,31 H 6.3486281 L 4.174314,28.685549 2,26.371098 V 25.307993 24.244889 L 3.5333112,22.972354 5.0666225,21.699819 3.0333112,19.535458 1,17.371098 V 16.40666 15.442223 L 7.4757596,9.024025 13.951519,2.6058266 16.465281,4.9673835 18.979044,7.3289405 21.015013,5.4864137 23.050982,3.6438869 27.025491,7.5248912 31,11.405896 v 1.142064 1.142065 L 29.171259,15.345012 27.342519,17 H 24.639875 21.93723 l -0.589896,1.537245 -0.589896,1.537245 1.621281,1.791496 L 24,23.657481 v 0.984168 0.984169 L 21.006734,28.493549 18.013467,31.36128 15.675765,29.165122 13.338062,26.968965 11.514043,28.984482 9.6900249,31 Z" style="fill:#91dc7d"></path><path d="M 8.0193265,31 H 6.3486281 L 4.174314,28.685549 2,26.371098 V 25.307993 24.244889 L 3.5333112,22.972354 5.0666225,21.699819 3.0333112,19.535458 1,17.371098 V 16.340536 15.309975 L 2.7844725,13.69505 4.5689449,12.080124 5.7929463,14.040062 7.0169478,16 H 8.3213827 9.6258176 L 12.562909,12.907178 15.5,9.8143554 19.317243,6.769891 23.134486,3.7254265 27.067243,7.565661 31,11.405896 v 1.142064 1.142065 L 29.171259,15.345012 27.342519,17 H 24.639875 21.93723 l -0.589896,1.537245 -0.589896,1.537245 1.621281,1.791496 L 24,23.657481 v 0.984168 0.984169 L 21.006734,28.493549 18.013467,31.36128 15.675765,29.165122 13.338062,26.968965 11.514043,28.984482 9.6900249,31 Z" style="fill:#398e63"></path><path d="M 7.9674572,31 H 6.2448894 l -1.1099575,-1.337417 -1.1099576,-1.337417 2.3570883,-2.21437 2.3570883,-2.214369 2.4069571,0.604108 2.406957,0.604108 2.387938,-2.541843 2.387937,-2.541844 -1.853797,-2.048423 -1.853798,-2.048423 2.675691,-2.675692 2.675691,-2.675691 1.213637,1.213637 L 22.4,13 h 1.677555 1.677556 L 27,11.5 28.244889,10 h 0.908941 0.90894 l 0.589896,1.537245 0.589896,1.537245 -1.776268,1.962755 L 27.690025,17 H 24.813628 21.93723 l -0.589896,1.537245 -0.589896,1.537245 1.621281,1.791496 L 24,23.657481 v 0.984168 0.984169 L 21.006734,28.493549 18.013467,31.36128 15.675765,29.165122 13.338062,26.968965 11.514043,28.984482 9.6900249,31 Z" style="fill:#395550"></path></symbol><symbol id="item-blast-compound-ui" viewBox="0 0 32 32"><path d="M 16,32 H 0 V 16 0 h 16 16 v 16 16 z" style="fill:#ffffff"></path><path d="M 15.859863,28 H 8.3486281 L 6.174314,25.685549 4,23.371098 V 15.859863 8.3486281 L 6.3144512,6.174314 8.6289024,4 h 7.5112346 7.511235 L 25.825686,6.3144512 28,8.6289024 v 7.5112346 7.511235 L 25.685549,25.825686 23.371098,28 Z" style="fill:#fe785d"></path><path d="M 11.882151,28 H 8.3486281 L 6.174314,25.685549 4,23.371098 V 15.859863 8.3486281 L 6.3144512,6.174314 8.6289024,4 H 10.598611 12.56832 L 17.78416,9.2814453 23,14.562891 v 3.015607 3.015606 L 19.207837,24.297052 15.415675,28 Z M 15.830358,24.97877 16.160715,22.835069 14.580358,21.088794 13,19.342519 V 18.5 17.657481 L 14.654988,15.828741 16.309975,14 14.654988,12.171259 13,10.342519 V 7.6712593 5 h -0.671259 -0.67126 L 9.8287407,6.6549876 8,8.3099751 V 9.3262469 10.342519 L 9.6549876,12.171259 11.309975,14 9.6549876,15.828741 8,17.657481 v 0.879097 0.879097 l 3.75,3.853397 3.75,3.853398 z" style="fill:#c75b50"></path></symbol><symbol id="item-carbide-ui" viewBox="0 0 32 32"><path d="M 16,32 H 0 V 16 0 h 16 16 v 16 16 z" style="fill:#ffffff"></path><path d="M 18.87599,30 H 18.309975 L 16.468084,27.964733 14.626192,25.929466 13.132813,26.502529 11.639434,27.075593 6.319717,21.821956 1,16.56832 V 15.505272 14.442223 L 7.4757596,8.024025 13.951519,1.6058266 16.271302,3.785149 18.591084,5.9644715 20.799816,3.75574 l 2.208731,-2.2087315 3.186715,3.1867151 3.186715,3.1867151 -1.689494,1.8668703 -1.689495,1.86687 2.498506,2.347225 L 31,16.348628 v 1.10699 1.106989 L 25.221003,24.281303 19.442005,30 Z" style="fill:#c8a4c7"></path><path d="M 18.936291,30 H 18.309975 L 16.468084,27.964733 14.626192,25.929466 13.132813,26.502529 11.639434,27.075593 6.319717,21.821956 1,16.56832 v -1.081212 -1.081212 l 3.796128,-3.70682 3.7961279,-3.7068201 1.1614904,1.1614904 1.1614907,1.1614904 1.561139,-1.2956305 1.561139,-1.2956305 1.881965,1.7031549 1.881965,1.7031544 0.688305,-1.1137006 0.688305,-1.113701 1.444284,1.1986489 1.444283,1.1986487 -2.026311,2.15691 L 18.014,14.614 l 1.190691,1.190691 1.190691,1.190691 2.791878,-2.674789 2.791878,-2.674788 0.670967,0.670967 0.670967,0.670966 -1.668632,1.843817 -1.668631,1.843817 1.864713,1.687542 1.864713,1.687543 1.285883,-1.549395 1.285883,-1.549394 0.550318,0.550317 0.550317,0.550318 -5.911514,5.973848 L 19.562607,30 Z m -3.765882,-14.654218 1.845782,-1.67041 -1.670409,-1.845781 -1.67041,-1.845782 -1.845781,1.670409 -1.845782,1.67041 1.670409,1.845781 1.67041,1.845782 z" style="fill:#887599"></path><path d="M 18.958821,30 H 18.309975 L 16.468084,27.964733 14.626192,25.929466 13.132813,26.502529 11.639434,27.075593 6.319717,21.821956 1,16.56832 v -1.129172 -1.129173 l 1.9812424,-1.793 1.9812424,-1.792999 1.5642666,1.298226 1.5642666,1.298226 -0.4732743,1.233333 -0.4732744,1.233333 2.4172871,2.270923 2.4172876,2.270923 1.99172,-1.802482 1.991721,-1.802482 1.531089,1.270691 1.531088,1.27069 -1.060889,1.278294 -1.06089,1.278294 1.111572,0.686989 1.111572,0.686989 1.968114,-1.78112 1.968115,-1.781119 1.673957,1.673957 1.673956,1.673957 -3.401251,3.509201 L 19.607666,30 Z" style="fill:#4f467a"></path></symbol><symbol id="item-coal-ui" viewBox="0 0 32 32"><path d="M 16,32 H 0 V 16 0 h 16 16 v 16 16 z" style="fill:#ffffff"></path><path d="M 13.966106,28 H 8.3486281 L 6.174314,25.685549 4,23.371098 V 15.859863 8.3486281 L 6.3144512,6.174314 8.6289024,4 h 4.9731406 4.973141 L 23.287592,8.7843492 28,13.568698 v 2.9278 2.927799 L 23.791792,23.712148 19.583584,28 Z" style="fill:#3f3f3f"></path><path d="M 13.971366,28 H 8.3486281 L 6.174314,25.685549 4,23.371098 V 15.859863 8.3486281 L 6.3144512,6.174314 8.6289024,4 h 2.3726396 2.37264 L 10.478629,7.0223068 7.5830751,10.044614 10.762429,13.223967 13.941782,16.403321 16.277891,14.20866 18.614,12.014 19.807,13.207 21,14.4 v 1.6 1.6 l 1.2,1.2 1.2,1.2 h 2.002948 2.002948 L 23.5,24 19.594104,28 Z" style="fill:#292929"></path></symbol><symbol id="item-copper-ui" viewBox="0 0 32 32"><path d="M 16,32 H 0 V 16 0 h 16 16 v 16 16 z" style="fill:#ffffff"></path><path d="M 18.428949,29 H 14.442223 L 8.2211117,22.723095 2,16.446189 V 12.926042 9.4058955 L 5.7921626,5.7029478 9.5843253,2 H 12.56719 15.550055 L 22.775028,9.273516 30,16.547032 v 2.523536 2.523536 L 26.207837,25.297052 22.415675,29 Z" style="fill:#e9c1a8"></path><path d="M 18.598667,29 H 14.442223 L 8.2211117,22.723095 2,16.446189 V 12.926042 9.4058955 L 5.7921626,5.7029478 9.5843253,2 H 12.792163 16 V 2.7916821 3.5833642 L 10.5,6.2808168 5,8.9782694 V 9.86669 10.755111 l 1.5696777,1.302716 1.5696776,1.302717 6.3171897,-3.115147 6.31719,-3.1151474 2.114222,2.250486 2.114222,2.2504854 -6.00109,2.868258 L 13,17.367737 v 0.487391 0.487391 l 1.615329,1.784918 1.615328,1.784918 5.856155,-2.956178 L 27.942967,16 H 28.971483 30 v 2.300734 2.300735 l -4.75,2.398922 -4.75,2.398922 2.308374,0.377544 2.308374,0.377544 L 23.935929,27.5772 22.755111,29 Z" style="fill:#d89c72"></path><path d="M 18.598667,29 H 14.442223 L 8.2211117,22.723095 2,16.446189 V 12.889761 9.3333333 l 0.570144,-0.5701439 0.570144,-0.570144 8.130129,8.4685316 8.130129,8.468532 2.815768,0.563154 2.815769,0.563154 -1.138486,1.371791 L 22.755111,29 Z" style="fill:#b76f5b"></path></symbol><symbol id="item-dormant-cyst-ui" viewBox="0 0 32 32"><path d="M 16,32 H 0 V 16 0 h 16 16 v 16 16 z" style="fill:#ffffff"></path><path d="M 14.12505,29 H 10.309975 L 8.6549876,27.171259 7,25.342519 V 23.720949 22.09938 L 8.6035765,21.201974 10.207153,20.304567 9.220248,18.402284 8.2333428,16.5 6.9380202,13.731929 5.6426975,10.963857 9.0175155,7.4819285 12.392334,4 h 3.129519 3.129519 L 20.825686,6.3144512 23,8.6289024 V 9.8144512 11 h 1.345012 1.345013 L 27.345012,12.828741 29,14.657481 v 1.996946 1.996945 L 26.685549,20.825686 24.371098,23 h -0.997491 -0.99749 l -2.217996,3 -2.217996,3 z" style="fill:#f5ba63"></path><path d="M 14.12505,29 H 10.309975 L 8.6549876,27.171259 7,25.342519 V 23.837926 22.333333 L 7.6327549,21.700578 8.2655098,21.067824 10.205335,23.533912 12.14516,26 h 2.304975 2.304976 L 18.069567,24.416177 19.384022,22.832355 18.327023,21.166177 17.270024,19.5 13.821072,19.424008 10.37212,19.348017 9.1860601,18.614991 8,17.881966 V 16.440983 15 h 3.877555 3.877556 l 1.158073,-1.395393 1.158073,-1.395393 3.564752,-0.668752 3.564752,-0.668751 1.899619,1.719132 L 29,14.309975 v 2.170699 2.170698 L 26.685549,20.825686 24.371098,23 h -0.997491 -0.99749 l -2.217996,3 -2.217996,3 z" style="fill:#de814c"></path><path d="M 14.12505,29 H 10.309975 L 8.6549876,27.171259 7,25.342519 V 23.837926 22.333333 L 7.6327549,21.700578 8.2655098,21.067824 10.205335,23.533912 12.14516,26 h 2.215658 2.215657 L 20.288238,21.559543 24,17.119085 V 15.61856 14.118034 L 23,13.5 22,12.881966 V 11.940983 11 h 1.845012 1.845013 L 27.345012,12.828741 29,14.657481 v 1.996946 1.996945 L 26.685549,20.825686 24.371098,23 h -0.997491 -0.99749 l -2.217996,3 -2.217996,3 z" style="fill:#ae392f"></path></symbol><symbol id="item-fissile-matter-ui" viewBox="0 0 32 32"><path d="M 16,32 H 0 V 16 0 h 16 16 v 16 16 z" style="fill:#ffffff"></path><path d="M 14.962119,31 H 13.374182 L 10.577852,28.08126 7.7815225,25.162521 8.3552037,24.234285 8.9288848,23.30605 5.9644424,20.465934 3,17.625818 V 16.091906 14.557995 L 8.7186965,8.7789974 14.437393,3 h 1.094212 1.094213 L 19.5,6 22.374182,9 h 1.116742 1.116742 l 3.40656,3.514678 3.40656,3.514677 L 23.98542,23.514678 16.550055,31 Z" style="fill:#8abdaf"></path><path d="M 14.962119,31 H 13.374182 L 10.577852,28.08126 7.7815225,25.162521 8.3552037,24.234285 8.9288848,23.30605 5.9644424,20.465934 3,17.625818 v -1.753892 -1.753892 l 1.0438049,-0.645107 1.0438049,-0.645107 1.5075815,1.251182 1.5075816,1.251181 5.2530081,-5.187755 5.253008,-5.1877559 2.177841,2.318206 2.177841,2.318206 -2.193346,2.1933469 -2.193347,2.193347 1.204518,1.204518 1.204519,1.204519 2.822346,-2.70398 2.822347,-2.703979 2.383183,2.536782 2.383183,2.536782 -7.423909,7.47379 L 16.550055,31 Z m 0.416689,-8.934363 2.043414,-2.043415 -1.187482,-1.187482 -1.187483,-1.187483 -2.020097,1.828164 -2.020097,1.828163 1.164165,1.402733 1.164166,1.402734 z" style="fill:#5d978c"></path><path d="m 14.834045,31 h -1.716011 l -0.508332,-0.822499 -0.508333,-0.822499 8.278632,-8.235626 8.278631,-8.235626 1.339798,1.614359 1.339799,1.614358 -7.394087,7.443766 L 16.550055,31 Z M 8.9639107,23 H 8.3741824 L 5.6870912,20.195281 3,17.390562 v -1.369595 -1.369595 l 2.5242404,2.371401 2.5242405,2.3714 6.2642641,-6.208582 6.264263,-6.2085826 1.2239,1.2238998 1.2239,1.2238999 L 16.289224,16.212404 9.5536391,23 Z" style="fill:#496848"></path></symbol><symbol id="item-graphite-ui" viewBox="0 0 32 32"><path d="M 16,32 H 0 V 16 0 h 16 16 v 16 16 z" style="fill:#ffffff"></path><path d="M 15.859863,28 H 8.3486281 L 6.174314,25.685549 4,23.371098 V 15.859863 8.3486281 L 6.3144512,6.174314 8.6289024,4 h 7.5112346 7.511235 L 25.825686,6.3144512 28,8.6289024 v 7.5112346 7.511235 L 25.685549,25.825686 23.371098,28 Z" style="fill:#94aad8"></path><path d="M 16,28 H 8.3486281 L 6.174314,25.685549 4,23.371098 V 15.840536 8.3099751 L 6,6.5 8,4.6900249 v 1.9284477 1.9284478 l 7.912468,7.8660616 7.912469,7.866061 2.202021,-0.575842 L 28.22898,23.12736 25.940176,25.56368 23.651372,28 Z M 13.2,24 H 16 V 22.804719 21.609438 L 13.312909,18.804719 10.625818,16 H 9.3129088 8 v 2.8 2.8 l 1.2,1.2 1.2,1.2 z M 26.559017,20 H 25.118034 L 24.5,19 23.881966,18 24.5,17 25.118034,16 H 26.559017 28 v 2 2 z M 14.4375,7.687967 13.375,8.0416667 12.6875,7.3541667 12,6.6666667 V 5.3333333 4 h 2.073324 2.073324 L 15.823324,5.6671337 15.5,7.3342674 Z" style="fill:#6a76a0"></path><path d="M 16.019326,28 H 8.3486281 L 6.174314,25.685549 4,23.371098 V 15.840536 8.3099751 L 6,6.5 8,4.6900249 V 6.6184726 8.5469204 L 15.772124,16.27346 23.544247,24 h 1.882864 1.882864 L 25.5,26 23.690025,28 Z M 13.2,24 H 16 V 22.804719 21.609438 L 13.312909,18.804719 10.625818,16 H 9.3129088 8 v 2.8 2.8 l 1.2,1.2 1.2,1.2 z M 26.559017,20 H 25.118034 L 24.5,19 23.881966,18 24.5,17 25.118034,16 H 26.559017 28 v 2 2 z M 14.4375,7.687967 13.375,8.0416667 12.6875,7.3541667 12,6.6666667 V 5.3333333 4 h 2.073324 2.073324 L 15.823324,5.6671337 15.5,7.3342674 Z" style="fill:#616e9a"></path></symbol><symbol id="item-lead-ui" viewBox="0 0 32 32"><path d="M 16,32 H 0 V 16 0 h 16 16 v 16 16 z" style="fill:#ffffff"></path><path d="M 17.43326,30 H 14.442223 L 8.2211117,23.723095 2,17.446189 V 13.931303 10.416416 L 6.2878515,6.208208 10.575703,2 h 2.488968 2.488968 L 22.27682,8.7750962 29,15.550192 v 3.016696 3.016696 L 24.712148,25.791792 20.424297,30 Z" style="fill:#aa98d2"></path><path d="M 17.566124,30 H 14.442223 L 8.2211117,23.723095 2,17.446189 v -3.60065 -3.60065 L 3.5,9 5,7.7551106 v 2.3992644 2.399264 L 11.775096,19.27682 18.550192,26 h 2.879892 2.879891 L 22.5,28 20.690025,30 Z m 2.820975,-8 H 19.43168 L 13.982276,16.482053 8.5328715,10.964105 9.5832665,9.2988834 10.633661,7.6336615 12.298883,6.5832665 13.964105,5.5328715 19.482053,10.982276 25,16.43168 v 1.129172 1.129173 L 23.171259,20.345012 21.342519,22 Z" style="fill:#8b7ea8"></path><path d="M 17.566124,30 H 14.442223 L 8.2211117,23.723095 2,17.446189 v -3.60065 -3.60065 L 3.5,9 5,7.7551106 v 2.3992644 2.399264 L 11.775096,19.27682 18.550192,26 h 2.879892 2.879891 L 22.5,28 20.690025,30 Z" style="fill:#6e677d"></path></symbol><symbol id="item-metaglass-ui" viewBox="0 0 32 32"><path d="M 16,32 H 0 V 16 0 h 16 16 v 16 16 z" style="fill:#ffffff"></path><path d="M 17.449635,31 H 16.45308 L 8.7265398,23.227876 1,15.455753 v -1.50918 -1.50918 L 6.7789974,6.7186965 12.557995,1 h 1.99603 1.99603 L 23.775028,8.273516 31,15.547032 v 1.505372 1.505373 L 24.723095,24.778888 18.446189,31 Z" style="fill:#fefefe"></path><path d="M 17.449635,31 H 16.45308 L 8.7265398,23.227876 1,15.455753 v -1.50918 -1.50918 L 6.7789974,6.7186965 12.557995,1 h 1.99603 1.99603 L 23.775028,8.273516 31,15.547032 v 1.505372 1.505373 L 24.723095,24.778888 18.446189,31 Z M 21.739593,16 H 23.06277 L 23.666825,14.425856 24.270881,12.851711 19.927233,8.4258555 15.583584,4 H 14.260407 12.93723 L 12.333175,5.5741445 11.729119,7.1482889 16.072767,11.574144 20.416416,16 Z" style="fill:#eaedf4"></path><path d="M 17.449635,31 H 16.45308 L 8.7265398,23.227876 1,15.455753 v -1.66886 -1.668859 L 1.8233344,11.609185 2.6466687,11.100337 10.548164,19.048449 18.44966,26.99656 24.72483,20.777168 31,14.557777 v 2 2 L 24.723095,24.778888 18.446189,31 Z" style="fill:#cfcfdf"></path></symbol><symbol id="item-oxide-ui" viewBox="0 0 32 32"><path d="M 16,32 H 0 V 16 0 h 16 16 v 16 16 z" style="fill:#ffffff"></path><path d="M 15.87264,28 H 8.3741824 L 5.6870912,25.195281 3,22.390562 V 20.284175 18.177787 L 6,15.653454 9,13.12912 V 10.719548 8.3099751 L 10.828741,6.6549876 12.657481,5 16.078741,5.0004909 19.5,5.0009817 23.75,9.9360816 28,14.871181 v 4.390096 4.390095 L 25.685549,25.825686 23.371098,28 Z" style="fill:#e3fed5"></path><path d="M 13.874182,28 H 8.3741824 L 5.6870912,25.195281 3,22.390562 V 20.361948 18.333333 L 3.6607407,17.672593 4.3214814,17.011852 5.4402737,19.255926 6.5590659,21.5 H 7.9205465 9.282027 L 10.383719,19.753456 11.48541,18.006912 10.242705,16.017025 9,14.027138 V 11.839255 9.6513719 L 11.5,12 14,14.348628 v 4.020967 4.020967 L 16.687091,25.195281 19.374182,28 Z M 22,22 H 21.4 L 20.2,20.8 19,19.6 V 17.922445 16.244889 L 20.5,15 22,13.755111 23.5,15 25,16.244889 V 17.922445 19.6 l -1.2,1.2 -1.2,1.2 z" style="fill:#9fb27f"></path></symbol><symbol id="item-phase-fabric-ui" viewBox="0 0 32 32"><path d="M 16,32 H 0 V 16 0 h 16 16 v 16 16 z" style="fill:#ffffff"></path><path d="M 7.3712593,29 H 5.4 L 4.2,27.8 3,26.6 V 24.614451 22.628902 L 5.174314,20.314451 7.3486281,18 5.174314,15.685549 3,13.371098 V 11.490268 9.6094377 L 5.6870912,6.8047189 8.3741824,4 h 2.6904636 2.690465 L 15.032262,5.538873 16.309413,7.077746 19.04028,4.461409 21.771148,1.8450721 24.635574,2.172536 27.5,2.5 l 0.318231,3.3153241 0.31823,3.3153241 -1.116789,1.3456478 -1.116789,1.345649 1.048559,0.648044 L 28,13.118034 v 5.253892 5.253892 L 25.195281,26.312909 22.390562,29 h -2.86654 -2.866541 L 14.828741,27.345012 13,25.690025 11.171259,27.345012 9.3425187,29 Z" style="fill:#fef2d5"></path><path d="M 7.3712593,29 H 5.4 L 4.2,27.8 3,26.6 V 24.614451 22.628902 L 5.174314,20.314451 7.3486281,18 5.174314,15.685549 3,13.371098 V 11.685549 10 H 5.2023928 7.4047855 L 10.525254,6.975523 13.645722,3.951046 15.497732,5.9974943 17.349743,8.0439426 14.174871,11.319579 11,14.595214 V 15.797607 17 h 0.77682 0.776819 L 19.5,10 26.446361,3 H 27.22318 28 V 6.2210026 9.4420051 L 22.281303,15.221003 16.562607,21 h 2.421089 2.42109 L 24.702393,17.803833 28,14.607666 v 4.509076 4.509076 L 25.195281,26.312909 22.390562,29 h -2.86654 -2.866541 L 14.828741,27.345012 13,25.690025 11.171259,27.345012 9.3425187,29 Z" style="fill:#fed49d"></path><path d="M 7.3712593,29 H 5.4 L 4.2,27.8 3,26.6 V 25.8 25 H 5.7321093 8.4642186 L 18.232109,15.268762 28,5.5375233 v 1.9561422 1.9561422 l -6.62202,6.6731543 -6.62202,6.673155 0.681037,1.101942 L 16.118034,25 h 2.643376 2.643376 L 24.702393,21.803833 28,18.607666 v 2.509076 2.509076 L 25.195281,26.312909 22.390562,29 h -2.86654 -2.866541 L 14.828741,27.345012 13,25.690025 11.171259,27.345012 9.3425187,29 Z M 12.424257,13.051934 7.410418,18.065772 5.030895,15.532886 2.6513719,13 h 2.9781473 2.9781472 l 3.3942206,-3.5019465 3.39422,-3.5019466 1.020994,1.0209942 1.020994,1.0209941 z" style="fill:#f09482"></path></symbol><symbol id="item-plastanium-ui" viewBox="0 0 32 32"><path d="M 16,32 H 0 V 16 0 h 16 16 v 16 16 z" style="fill:#ffffff"></path><path d="M 15.934395,30 H 14.43168 L 9.2158398,24.718555 4,19.437109 V 15.934395 12.43168 L 9.2814453,7.2158398 14.562891,2 h 1.502714 1.502715 L 22.78416,7.2814453 28,12.562891 v 3.502714 3.502715 L 22.718555,24.78416 17.437109,30 Z" style="fill:#ecf2a8"></path><path d="M 15.934395,30 H 14.43168 L 9.2158398,24.718555 4,19.437109 V 15.934395 12.43168 L 9.2814453,7.2158398 14.562891,2 h 1.502714 1.502715 L 22.78416,7.2814453 28,12.562891 v 3.502714 3.502715 L 22.718555,24.78416 17.437109,30 Z m 6.209536,-16 h 0.738035 L 23.567332,12.891055 24.252698,11.782109 20.143996,7.6734077 16.035294,3.5647059 14.816156,4.7838444 13.597017,6.0029829 17.501456,10.001491 21.405896,14 Z" style="fill:#cad87e"></path><path d="M 15.934395,30 H 14.43168 L 9.2158398,24.718555 4,19.437109 V 16.502715 13.56832 L 9.2814453,18.78416 14.562891,24 H 16 17.437109 L 22.718555,18.78416 28,13.56832 v 3 3 L 22.718555,24.78416 17.437109,30 Z" style="fill:#9bb563"></path></symbol><symbol id="item-pyratite-ui" viewBox="0 0 32 32"><path d="M 16,32 H 0 V 16 0 h 16 16 v 16 16 z" style="fill:#ffffff"></path><path d="M 15.859863,28 H 8.3486281 L 6.174314,25.685549 4,23.371098 V 15.859863 8.3486281 L 6.3144512,6.174314 8.6289024,4 h 7.5112346 7.511235 L 25.825686,6.3144512 28,8.6289024 v 7.5112346 7.511235 L 25.685549,25.825686 23.371098,28 Z" style="fill:#fea95e"></path><path d="M 11.882151,28 H 8.3486281 L 6.174314,25.685549 4,23.371098 V 15.859863 8.3486281 L 6.3144512,6.174314 8.6289024,4 H 10.598611 12.56832 L 17.78416,9.2814453 23,14.562891 v 3.015607 3.015606 L 19.207837,24.297052 15.415675,28 Z M 15.830358,24.97877 16.160715,22.835069 14.580358,21.088794 13,19.342519 V 18.5 17.657481 L 14.654988,15.828741 16.309975,14 14.654988,12.171259 13,10.342519 V 7.6712593 5 h -0.671259 -0.67126 L 9.8287407,6.6549876 8,8.3099751 V 9.3262469 10.342519 L 9.6549876,12.171259 11.309975,14 9.6549876,15.828741 8,17.657481 v 0.879097 0.879097 l 3.75,3.853397 3.75,3.853398 z" style="fill:#d27e46"></path></symbol><symbol id="item-sand-ui" viewBox="0 0 32 32"><path d="M 16,32 H 0 V 16 0 h 16 16 v 16 16 z" style="fill:#ffffff"></path><path d="M 15.882372,28 H 9.3741824 L 6.6870912,25.195281 4,22.390562 v -4.907429 -4.90743 L 8.208208,8.2878515 12.416416,4 H 16 19.583584 L 23.791792,8.2878515 28,12.575703 v 5.025057 5.025058 L 25.195281,25.312909 22.390562,28 Z" style="fill:#f6caa3"></path><path d="M 12.895299,28 H 9.3741824 L 6.6870912,25.195281 4,22.390562 v -4.907429 -4.90743 L 8.208208,8.2878515 12.416416,4 H 13.208208 14 V 6.8129088 9.6258176 L 11,12.5 8,15.374182 v 2.025058 2.025057 L 12.208208,23.712148 16.416416,28 Z m 5.232775,-4 h -0.753892 l -2.895553,-3.022307 -2.895554,-3.022307 3.193078,-3.193077 3.193078,-3.193078 1.191756,1.191756 1.191756,1.191756 -1.831359,2.023628 L 16.690025,18 l 1.752949,1.936987 1.752949,1.936986 -0.656979,1.063014 L 18.881966,24 Z" style="fill:#d2ad8c"></path></symbol><symbol id="item-scrap-ui" viewBox="0 0 32 32"><path d="M 16,32 H 0 V 16 0 h 16 16 v 16 16 z" style="fill:#ffffff"></path><path d="M 7.0116791,28 H 5.3333333 L 4.6666667,27.333333 4,26.666667 V 23.561256 20.455844 L 12.270888,12.227922 20.541775,4 H 23.1159 25.690025 L 27.345012,5.8287407 29,7.6574813 V 10.612901 13.56832 L 23.718555,18.78416 18.437109,24 H 15.373542 12.309975 L 10.5,26 8.6900249,28 Z M 8.9144042,11.800558 6.3288084,12.101116 5.0876403,10.6056 3.8464723,9.1100841 4.1732361,6.8050421 4.5,4.5 H 8 11.5 V 8 11.5 Z" style="fill:#dfb18c"></path><path d="M 7.0116791,28 H 5.3333333 L 4.6666667,27.333333 4,26.666667 V 23.536281 20.405896 L 7.8655226,16.631314 11.731045,12.856732 12.334138,14.428366 12.93723,16 h 2.318977 2.318977 L 22.455759,11.044916 27.336335,6.0898323 28.168167,6.6039332 29,7.118034 v 3.225143 3.225143 L 23.718555,18.78416 18.437109,24 H 15.373542 12.309975 L 10.5,26 8.6900249,28 Z M 8.8570708,12 H 6.6513719 L 9.0558643,9.4405351 11.460357,6.8810703 11.824508,7.9735242 12.188659,9.0659782 11.625714,10.532989 11.06277,12 Z" style="fill:#9a918a"></path><path d="M 15.218555,24 H 12 V 23.174314 22.348628 L 14.314451,20.174314 16.628902,18 h 1.4012 1.4012 L 24.215651,13.287592 29,8.5751837 V 11.071752 13.56832 L 23.718555,18.78416 18.437109,24 Z" style="fill:#656565"></path></symbol><symbol id="item-silicon-ui" viewBox="0 0 32 32"><path d="M 16,32 H 0 V 16 0 h 16 16 v 16 16 z" style="fill:#ffffff"></path><path d="M 15.87264,28 H 10.374182 L 7.6870912,25.195281 5,22.390562 5.0064562,17.945281 5.0129125,13.5 9.0842621,8.75 13.155612,4 h 4.735103 4.735103 L 25.312909,6.8047189 28,9.6094377 v 4.6362643 4.636264 L 27,19.5 26,20.118034 v 1.766669 1.766669 L 23.685549,25.825686 21.371098,28 Z" style="fill:#8d8f96"></path><path d="M 15.87264,28 H 10.374182 L 7.6870912,25.195281 5,22.390562 5.0064562,17.945281 5.0129125,13.5 9.0842621,8.75 13.155612,4 h 1.783522 1.783522 L 16.287202,6.2779296 15.851749,8.5558592 17.925874,10.432917 20,12.309975 V 14 15.690025 L 22,17.5 24,19.309975 V 13.969439 8.6289024 L 21.825686,6.3144512 19.651372,4 h 1.487223 1.487223 L 25.312909,6.8047189 28,9.6094377 v 4.6362643 4.636264 L 27,19.5 26,20.118034 v 1.766669 1.766669 L 23.685549,25.825686 21.371098,28 Z M 17.95594,23.773448 19.5,23.479569 19.79402,21.43461 20.088041,19.389651 18.04402,17.539838 16,15.690025 V 14 12.309975 L 14,10.5 12,8.6900249 v 5.3405361 5.340537 l 2.20594,2.348115 2.205939,2.348115 z" style="fill:#757983"></path><path d="M 15.87264,28 H 10.374182 L 7.6870912,25.195281 5,22.390562 V 17.817726 13.244889 L 6.5,12 8,10.755111 v 3.817725 3.817726 L 10.687091,21.195281 13.374182,24 h 4.484169 4.484168 L 24.171259,22.345012 26,20.690025 v 1.480673 1.480674 L 23.685549,25.825686 21.371098,28 Z" style="fill:#39394f"></path></symbol><symbol id="item-spore-pod-ui" viewBox="0 0 32 32"><path d="M 16,32 H 0 V 16 0 h 16 16 v 16 16 z" style="fill:#ffffff"></path><path d="M 10.877555,28 H 4 V 24.154988 20.309975 L 6,18.5 8,16.690025 V 12.519326 8.3486281 L 10.314451,6.174314 12.628902,4 h 3.982601 3.982601 L 24.297052,7.7921626 28,11.584325 v 4.020746 4.020747 L 25.195281,22.312909 22.390562,25 H 21.317726 20.244889 L 19,26.5 17.755111,28 Z" style="fill:#9d77db"></path><path d="M 10.877555,28 H 4 V 27 26 H 5.3775553 6.7551106 L 8,24.5 9.2448894,23 h 1.6024596 1.602459 L 19.122962,16.37798 25.796117,9.7559595 26.898059,10.436997 28,11.118034 v 4.253892 4.253892 L 25.195281,22.312909 22.390562,25 H 21.317726 20.244889 L 19,26.5 17.755111,28 Z m 2.994371,-12 h -0.753892 l -0.683638,-1.106149 -0.683637,-1.106148 3.109236,-3.109236 3.109236,-3.1092362 1.208792,1.2087919 1.208792,1.208792 L 17.506316,12.993407 14.625818,16 Z" style="fill:#7356cd"></path><path d="M 12.755111,28 H 7.7551106 L 9,26.5 10.244889,25 H 13 15.755111 L 17,23.5 18.244889,22 h 1.085393 1.085393 L 24.207837,18.297052 28,14.594104 v 2.515857 2.515857 L 25.195281,22.312909 22.390562,25 H 21.317726 20.244889 L 19,26.5 17.755111,28 Z" style="fill:#5440b0"></path></symbol><symbol id="item-surge-alloy-ui" viewBox="0 0 32 32"><path d="M 16,32 H 0 V 16 0 h 16 16 v 16 16 z" style="fill:#ffffff"></path><path d="M 17.449635,30 H 16.45308 L 8.5027182,22.002734 0.55235679,14.005468 6.9972901,7.5027342 13.442223,1 h 1.553916 1.553916 L 23.775028,8.273516 31,15.547032 v 1.005372 1.005373 L 24.723095,23.778888 18.446189,30 Z" style="fill:#fbf286"></path><path d="M 17.449635,30 H 16.45308 L 8.5027182,22.002734 0.55235679,14.005468 6.9972901,7.5027342 13.442223,1 h 1.553916 1.553916 L 23.775028,8.273516 31,15.547032 v 1.005372 1.005373 L 24.723095,23.778888 18.446189,30 Z m 0.865602,-10.915237 1,-1 L 18,16.5 l -1.315237,-1.584763 -1,1 -1,1 L 16,18.5 17.315237,20.084763 Z M 26.170225,18.394795 27,17.881966 V 16.222428 14.562891 L 21.78416,9.2814453 16.56832,4 h -1.597069 -1.597069 l -2.880498,3.0065926 -2.8804987,3.0065924 1.1801634,1.180164 1.1801634,1.180163 2.3119819,-2.171994 2.311983,-2.171995 5.371487,5.43905 5.371487,5.439051 z" style="fill:#e7d073"></path><path d="M 17.518332,30 H 16.45308 L 8.506109,22.006145 0.55913845,14.01229 2.2849305,12.286498 4.0107225,10.560706 11.485949,17.986043 18.961175,25.411379 21.785306,22.70569 24.609438,20 H 25.804719 27 v 0.712148 0.712149 L 22.791792,25.712148 18.583584,30 Z" style="fill:#d89e6a"></path></symbol><symbol id="item-thorium-ui" viewBox="0 0 32 32"><path d="M 16,32 H 0 V 16 0 h 16 16 v 16 16 z" style="fill:#ffffff"></path><path d="M 16.405341,28 H 14.405896 L 10.702948,24.207837 7,20.415675 V 18.382151 16.348628 L 4.5,14 2,11.651372 V 8.9806735 6.3099751 L 3.9115659,4.5800317 5.8231319,2.8500883 8.6615659,3.1750442 11.5,3.5 12.487128,5.75 13.474257,8 h 1.088557 1.088558 L 18,5.5 20.348628,3 H 22.5 24.651372 L 26.825686,5.3144512 29,7.6289024 v 3.5305616 3.530561 L 27,16.5 25,18.309975 v 1.648846 1.648845 L 21.702393,24.803833 18.404786,28 Z" style="fill:#f8a2c6"></path><path d="M 16.35738,28 H 14.309975 L 12.5,26 10.690025,24 h 2.480673 2.480674 L 17.825686,21.685549 20,19.371098 V 18.359863 17.348628 L 17.685549,15.174314 15.371098,13 h -1.38083 -1.38083 L 10.028321,15.472867 7.4472039,17.945734 6.215128,15.972867 4.9830522,14 H 6.3044349 7.6258176 L 10.5,11 13.374182,8 H 14.687091 16 v 1.3038332 1.3038328 l 3.495291,3.38777 3.495291,3.387769 3.004709,-2.878694 L 29,11.625818 v 1.532103 1.532104 L 27,16.5 25,18.309975 v 1.648846 1.648845 L 21.702393,24.803833 18.404786,28 Z" style="fill:#ca8dbe"></path></symbol><symbol id="item-titanium-ui" viewBox="0 0 32 32"><path d="M 16,32 H 0 V 16 0 h 16 16 v 16 16 z" style="fill:#ffffff"></path><path d="M 19.016764,31 H 15.449945 L 8.2249725,23.726484 1,16.452968 V 14.445181 12.437393 L 6.7789974,6.7186965 12.557995,1 h 1.494463 1.494462 L 23.27346,8.7721237 31,16.544247 v 2.940025 2.940025 L 26.791792,26.712148 22.583584,31 Z" style="fill:#a3b7f9"></path><path d="M 19.016764,31 H 15.449945 L 8.2249725,23.726484 1,16.452968 v -2.071496 -2.071497 l 2.0303821,-1.83747 2.030382,-1.8374709 4.9200483,4.8460669 4.9200486,4.846067 1.595627,-1.324254 1.595628,-1.324253 -3.747549,-3.837839 -3.74755,-3.8378391 0.988964,-0.9889634 0.988963,-0.9889634 7.412073,7.4618739 7.412073,7.461874 1.800455,-1.62939 L 31,17.690025 v 2.367136 2.367136 L 26.791792,26.712148 22.583584,31 Z M 20,23 h 0.755111 L 21.889886,21.632679 23.024662,20.265357 21.512331,19.010234 20,17.755111 18.487669,19.010234 16.975338,20.265357 18.110114,21.632679 19.244889,23 Z" style="fill:#909ee6"></path><path d="m 19.069985,31 h -3.62004 L 8.2249725,23.726484 1,16.452968 v -2.104039 -2.10404 L 2.3084312,11.158988 3.6168624,10.073087 12.036353,18.536543 20.455844,27 h 2.927066 2.927065 L 24.5,29 22.690025,31 Z" style="fill:#7474c7"></path></symbol><symbol id="item-tungsten-ui" viewBox="0 0 32 32"><path d="M 16,32 H 0 V 16 0 h 16 16 v 16 16 z" style="fill:#ffffff"></path><path d="M 11.430015,31 H 9.3099751 L 7.6549876,29.171259 6,27.342519 V 25.293704 23.244889 L 7.4898765,22.008402 8.9797531,20.771914 6.4898765,18.813377 4,16.85484 V 15.146116 13.437393 L 9.7789974,7.7186965 15.557995,2 h 2.066015 2.066015 L 21.345012,3.8287407 23,5.6574813 V 7.1544266 8.6513719 L 25.5,11 28,13.348628 v 1.55217 1.55217 L 20.775028,23.726484 13.550055,31 Z" style="fill:#9fafc7"></path><path d="M 11.442579,31 H 9.3099751 L 7.6549876,29.171259 6,27.342519 V 25.293704 23.244889 L 7.4898765,22.008402 8.9797531,20.771914 6.4898765,18.813377 4,16.85484 v -1.629813 -1.629813 l 3.1845281,-3.285599 3.1845279,-3.2855989 1.796714,1.6260041 1.796715,1.6260038 1.386079,-1.150343 1.386079,-1.1503434 1.120191,1.3497483 1.120192,1.3497481 -2.487513,2.336897 L 14,15.348628 v 1.703241 1.703242 L 15.5,20 17,21.244889 18.5,20 20,18.755111 l 1.550513,1.286811 1.550513,1.286811 -4.762921,4.835634 L 13.575184,31 Z" style="fill:#758999"></path><path d="M 11.467896,31 H 9.3099751 L 7.6549876,29.171259 6,27.342519 V 25.171259 23 h 0.6712593 0.6712594 l 1.8872764,1.707962 1.8872769,1.707961 1.691464,-1.214326 L 14.5,23.98727 l 1.317217,-0.626417 1.317218,-0.626418 1.12619,1.12619 1.12619,1.12619 -2.880499,3.006592 L 13.625818,31 Z M 8.4588208,20 H 7.3099751 L 5.6549876,18.171259 4,16.342519 V 14.826247 13.309975 L 5.8566176,11.629759 7.7132353,9.9495434 8.9892963,11.487103 10.265357,13.024662 11.632679,11.889886 13,10.755111 l 1.542944,1.28053 1.542945,1.28053 -3.239111,3.341914 L 9.6076664,20 Z" style="fill:#4b5777"></path></symbol></svg>